<svg width="53" height="53" viewBox="0 0 53 53" fill="none" xmlns="http://www.w3.org/2000/svg">
<g filter="url(#filter0_d_3977_4872)">
<rect x="4.84619" y="4.93994" width="44" height="44" rx="10" fill="white"/>
<path d="M32.1795 37.6066C31.8274 37.6069 31.4895 37.4679 31.2395 37.2199L26.8462 32.8199L22.4862 37.1666C22.3017 37.3637 22.0618 37.5002 21.7981 37.5581C21.5344 37.6159 21.2594 37.5923 21.0094 37.4904C20.7594 37.3885 20.5462 37.2132 20.398 36.9875C20.2498 36.7618 20.1736 36.4965 20.1795 36.2266V17.6066C20.1795 17.253 20.32 16.9138 20.57 16.6638C20.8201 16.4137 21.1592 16.2733 21.5128 16.2733H32.1795C32.5331 16.2733 32.8723 16.4137 33.1223 16.6638C33.3724 16.9138 33.5129 17.253 33.5129 17.6066V36.2733C33.5129 36.6269 33.3724 36.966 33.1223 37.2161C32.8723 37.4661 32.5331 37.6066 32.1795 37.6066ZM32.1795 36.2733V17.6066H21.5128V36.2266L26.8462 30.9399L32.1795 36.2733Z" fill="#BD0B20"/>
</g>
<defs>
<filter id="filter0_d_3977_4872" x="0.846191" y="0.939941" width="52" height="52" filterUnits="userSpaceOnUse" color-interpolation-filters="sRGB">
<feFlood flood-opacity="0" result="BackgroundImageFix"/>
<feColorMatrix in="SourceAlpha" type="matrix" values="0 0 0 0 0 0 0 0 0 0 0 0 0 0 0 0 0 0 127 0" result="hardAlpha"/>
<feOffset/>
<feGaussianBlur stdDeviation="2"/>
<feComposite in2="hardAlpha" operator="out"/>
<feColorMatrix type="matrix" values="0 0 0 0 0 0 0 0 0 0 0 0 0 0 0 0 0 0 0.25 0"/>
<feBlend mode="normal" in2="BackgroundImageFix" result="effect1_dropShadow_3977_4872"/>
<feBlend mode="normal" in="SourceGraphic" in2="effect1_dropShadow_3977_4872" result="shape"/>
</filter>
</defs>
</svg>
