<svg width="77" height="20" viewBox="0 0 77 20" fill="none" xmlns="http://www.w3.org/2000/svg">
<g clip-path="url(#clip0_3690_1206)">
<path d="M30.5562 11.4347L34.7775 16.6258H31.4442L27.6875 11.8583V16.6258H24.9553V2.96516H27.6875V10.9977L31.1573 7.06329H34.6408L30.5562 11.4347ZM19.6277 6.79016C19.0294 6.79911 18.4423 6.95292 17.9166 7.2384C17.3908 7.52389 16.942 7.93254 16.6087 8.42938V7.06329H14.0269V16.6258H16.7589V12.1588C16.723 11.8345 16.7543 11.5064 16.8507 11.1947C16.9471 10.8831 17.1066 10.5946 17.3194 10.3473C17.5321 10.1 17.7934 9.89911 18.0871 9.75716C18.3808 9.6152 18.7006 9.53522 19.0266 9.52219C20.6112 9.52219 20.8572 11.0795 20.8572 12.1588V16.6258H23.5894V11.5577C23.5894 8.55235 22.592 6.79016 19.6823 6.79016H19.6277ZM44.0803 12.0631C44.0908 12.2633 44.0908 12.464 44.0803 12.6642H36.9084V12.7598C37.0249 13.3295 37.3405 13.839 37.7986 14.197C38.2568 14.555 38.8275 14.7381 39.4084 14.7133C39.8693 14.7333 40.3294 14.6602 40.7613 14.4982C41.1932 14.3363 41.588 14.0889 41.922 13.7708L43.7389 15.1369C43.163 15.7245 42.4704 16.1849 41.7057 16.4884C40.941 16.792 40.1212 16.9318 39.2991 16.8991C38.6182 16.9421 37.9361 16.8385 37.2988 16.5953C36.6614 16.3521 36.0837 15.975 35.6045 15.4894C35.1254 15.0038 34.7561 14.421 34.5215 13.7805C34.2869 13.1399 34.1925 12.4564 34.2447 11.7763C34.2307 11.1048 34.3552 10.4377 34.6103 9.81641C34.8655 9.19516 35.2458 8.63313 35.7277 8.16534C36.2096 7.69755 36.7827 7.33403 37.4113 7.09743C38.0398 6.86083 38.7103 6.75624 39.3811 6.79016C41.9494 6.79016 44.0803 8.60703 44.0803 12.0631ZM41.5395 10.8883C41.5295 10.6177 41.4644 10.352 41.3484 10.1074C41.2323 9.86272 41.0677 9.64428 40.8644 9.46534C40.6612 9.2864 40.4237 9.15071 40.1663 9.06655C39.909 8.98238 39.6372 8.9515 39.3675 8.97579C38.1662 8.84594 37.0783 9.69208 36.9084 10.8883H41.5395ZM3.09827 2.96516H0.366089V16.6258H8.5625V13.8939H3.09827V2.96516ZM52.2769 2.96516H55.0089V16.6258H52.427V15.6695C52.0992 16.0735 51.6813 16.395 51.2069 16.6085C50.7325 16.822 50.2147 16.9215 49.695 16.8991C49.06 16.8828 48.4351 16.7368 47.8586 16.4701C47.2821 16.2033 46.7662 15.8216 46.3427 15.3481C45.9192 14.8747 45.597 14.3197 45.3959 13.7172C45.1948 13.1147 45.119 12.4774 45.1733 11.8445C45.1088 11.2108 45.1769 10.5705 45.3733 9.96451C45.5698 9.35851 45.8902 8.80003 46.3142 8.32461C46.7382 7.84919 47.2566 7.46724 47.8362 7.20306C48.4159 6.93888 49.0443 6.79827 49.6812 6.79016C50.1557 6.76937 50.6295 6.84321 51.0752 7.00739C51.5208 7.17156 51.9293 7.42278 52.2769 7.74641V2.96516ZM52.4817 11.8445C52.5247 11.5291 52.4995 11.2081 52.4079 10.9032C52.3162 10.5983 52.1603 10.3166 51.9506 10.0771C51.7409 9.83761 51.4822 9.64586 51.1921 9.51479C50.902 9.38373 50.5871 9.3164 50.2687 9.31735C48.9618 9.41222 47.9715 10.5361 48.042 11.8445C47.9715 13.153 48.9618 14.277 50.2687 14.3719C50.5871 14.3728 50.902 14.3055 51.1921 14.1744C51.4823 14.0433 51.7409 13.8516 51.9506 13.6121C52.1604 13.3725 52.3163 13.0908 52.4079 12.7859C52.4995 12.481 52.5247 12.16 52.4817 11.8445ZM11.2947 2.69188C10.8553 2.6981 10.4347 2.87081 10.1178 3.17512C9.80081 3.47943 9.61113 3.89267 9.58703 4.3314C9.58703 5.27435 10.3516 6.0389 11.2947 6.0389C12.2378 6.0389 13.002 5.2742 13.002 4.3314C12.9779 3.89272 12.7882 3.47954 12.4713 3.17526C12.1544 2.87099 11.7338 2.69829 11.2945 2.69203L11.2947 2.69188ZM9.92859 16.6258H12.6608V7.06329H9.92859V16.6258ZM76.8661 1.59906V17.9919C76.8661 18.3542 76.7222 18.7017 76.466 18.9579C76.2098 19.214 75.8623 19.358 75.5 19.358H59.1072C58.7449 19.358 58.3974 19.214 58.1412 18.9579C57.885 18.7017 57.7411 18.3542 57.7411 17.9919V1.59906C57.7411 1.23675 57.885 0.889283 58.1412 0.63309C58.3974 0.376898 58.7449 0.232971 59.1072 0.232971L75.5 0.232971C75.8623 0.232971 76.2098 0.376898 76.466 0.63309C76.7222 0.889283 76.8661 1.23675 76.8661 1.59906ZM63.2053 7.06329H60.4733V16.6258H63.2053V7.06329ZM63.5469 4.33125C63.5469 3.38815 62.7823 2.6236 61.8394 2.6236C60.8963 2.6236 60.1317 3.38815 60.1317 4.33125C60.1317 5.2742 60.8963 6.03875 61.8394 6.03875C62.7823 6.03875 63.5469 5.2742 63.5469 4.33125ZM74.1339 11.5577C74.1339 8.55235 73.1367 6.79016 70.227 6.79016C69.6195 6.79021 69.0213 6.93977 68.4853 7.22564C67.9492 7.51152 67.4918 7.92492 67.1533 8.42938V7.06329H64.5714V16.6258H67.3036V12.1588C67.2677 11.8345 67.299 11.5064 67.3954 11.1947C67.4918 10.8831 67.6513 10.5946 67.864 10.3473C68.0768 10.1 68.3381 9.89911 68.6318 9.75716C68.9255 9.6152 69.2453 9.53522 69.5712 9.52219C71.1559 9.52219 71.4019 11.0795 71.4019 12.1588V16.6258H74.1339V11.5577Z" fill="#0A66C2"/>
</g>
<defs>
<clipPath id="clip0_3690_1206">
<rect width="76.5" height="19.125" fill="white" transform="translate(0.366089 0.232971)"/>
</clipPath>
</defs>
</svg>
