<svg width="53" height="53" viewBox="0 0 53 53" fill="none" xmlns="http://www.w3.org/2000/svg">
<g filter="url(#filter0_d_2102_4005)">
<rect x="4.84619" y="4.93994" width="44" height="44" rx="10" fill="white"/>
<g clip-path="url(#clip0_2102_4005)">
<path d="M37.0858 15.8707C36.9467 15.7553 36.7778 15.6818 36.5986 15.6587C36.4194 15.6356 36.2373 15.6639 36.0736 15.7404L16.4276 24.9618V26.7461L24.6793 30.0468L29.9723 38.1899H31.757L37.3961 16.843C37.4418 16.6682 37.4369 16.484 37.382 16.3119C37.327 16.1397 37.2243 15.9867 37.0858 15.8707ZM30.6551 36.488L26.1056 29.4885L33.1065 21.8206L31.9988 20.8092L24.9431 28.5369L18.1395 25.8155L35.6446 17.5987L30.6551 36.488Z" fill="#BD0B20"/>
</g>
</g>
<defs>
<filter id="filter0_d_2102_4005" x="0.846191" y="0.939941" width="52" height="52" filterUnits="userSpaceOnUse" color-interpolation-filters="sRGB">
<feFlood flood-opacity="0" result="BackgroundImageFix"/>
<feColorMatrix in="SourceAlpha" type="matrix" values="0 0 0 0 0 0 0 0 0 0 0 0 0 0 0 0 0 0 127 0" result="hardAlpha"/>
<feOffset/>
<feGaussianBlur stdDeviation="2"/>
<feComposite in2="hardAlpha" operator="out"/>
<feColorMatrix type="matrix" values="0 0 0 0 0 0 0 0 0 0 0 0 0 0 0 0 0 0 0.25 0"/>
<feBlend mode="normal" in2="BackgroundImageFix" result="effect1_dropShadow_2102_4005"/>
<feBlend mode="normal" in="SourceGraphic" in2="effect1_dropShadow_2102_4005" result="shape"/>
</filter>
<clipPath id="clip0_2102_4005">
<rect width="24" height="24" fill="white" transform="translate(14.8462 14.9399)"/>
</clipPath>
</defs>
</svg>
