<svg width="77" height="21" fill="none" xmlns="http://www.w3.org/2000/svg">
  <g clip-path="url(#a)">
    <path d="m30.556 12.098 4.222 5.19h-3.334l-3.756-4.767v4.768h-2.733V3.628h2.733v8.032l3.47-3.934h3.483l-4.085 4.372ZM19.628 7.453a3.702 3.702 0 0 0-3.02 1.64V7.725h-2.581v9.563h2.732V12.82a2.377 2.377 0 0 1 2.268-2.636c1.584 0 1.83 1.557 1.83 2.636v4.468h2.732V12.22c0-3.005-.997-4.767-3.907-4.767h-.054Zm24.452 5.273c.01.2.01.4 0 .601h-7.172v.096a2.446 2.446 0 0 0 2.5 1.953 3.429 3.429 0 0 0 2.514-.942l1.817 1.366a5.888 5.888 0 0 1-4.44 1.762 4.766 4.766 0 0 1-5.054-5.123 4.891 4.891 0 0 1 5.136-4.986c2.568 0 4.7 1.817 4.7 5.273Zm-2.54-1.175a1.995 1.995 0 0 0-2.172-1.912 2.24 2.24 0 0 0-2.46 1.912h4.631ZM3.097 3.628H.366v13.66h8.197v-2.731H3.098V3.627Zm49.179 0h2.732v13.66h-2.582v-.956a3.333 3.333 0 0 1-2.732 1.23 4.658 4.658 0 0 1-4.522-5.055 4.59 4.59 0 0 1 4.508-5.054 3.58 3.58 0 0 1 2.596.956V3.628Zm.205 8.88a2.226 2.226 0 0 0-2.213-2.528 2.404 2.404 0 0 0-2.227 2.527 2.404 2.404 0 0 0 2.227 2.528 2.227 2.227 0 0 0 2.213-2.528ZM11.295 3.354a1.735 1.735 0 0 0-1.708 1.64 1.708 1.708 0 0 0 3.415 0 1.735 1.735 0 0 0-1.708-1.64ZM9.929 17.289h2.732V7.726H9.929v9.563ZM76.866 2.262v16.393A1.366 1.366 0 0 1 75.5 20.02H59.107a1.366 1.366 0 0 1-1.366-1.366V2.262A1.366 1.366 0 0 1 59.107.896H75.5a1.366 1.366 0 0 1 1.366 1.366Zm-13.66 5.464h-2.733v9.563h2.732V7.726Zm.34-2.732a1.708 1.708 0 1 0-3.414 0 1.708 1.708 0 0 0 3.415 0Zm10.588 7.226c0-3.005-.997-4.767-3.907-4.767a3.702 3.702 0 0 0-3.074 1.64V7.725h-2.582v9.563h2.733V12.82a2.377 2.377 0 0 1 2.267-2.636c1.585 0 1.83 1.557 1.83 2.636v4.468h2.733V12.22Z" fill="#0A66C2"/>
  </g>
  <defs>
    <clipPath id="a">
      <path fill="#fff" transform="translate(.366 .896)" d="M0 0h76.5v19.125H0z"/>
    </clipPath>
  </defs>
</svg>
