<svg width="95" height="96" viewBox="0 0 95 96" fill="none" xmlns="http://www.w3.org/2000/svg">
<circle cx="47.389" cy="48.2047" r="41.2942" fill="#A91F2F" fill-opacity="0.1"/>
<path fill-rule="evenodd" clip-rule="evenodd" d="M29.3887 30.2047H60.3887V35.2047H58.3887V32.2047H31.3887V55.2047H52.7757V57.2047H29.3887V30.2047ZM59.3887 43.2047C60.1843 43.2047 60.9474 42.8887 61.51 42.326C62.0726 41.7634 62.3887 41.0004 62.3887 40.2047C62.3887 39.4091 62.0726 38.646 61.51 38.0834C60.9474 37.5208 60.1843 37.2047 59.3887 37.2047C58.593 37.2047 57.83 37.5208 57.2674 38.0834C56.7047 38.646 56.3887 39.4091 56.3887 40.2047C56.3887 41.0004 56.7047 41.7634 57.2674 42.326C57.83 42.8887 58.593 43.2047 59.3887 43.2047ZM61.4197 45.2147C62.7187 45.2147 63.7467 45.7987 64.4197 46.7007C65.0487 47.5457 65.3147 48.5907 65.3747 49.5557C65.4334 50.5456 65.2986 51.5375 64.9777 52.4757C64.6777 53.3457 64.1707 54.2457 63.3887 54.8627V64.7047C63.3894 65.0816 63.2482 65.4449 62.9932 65.7225C62.7383 66 62.3882 66.1714 62.0126 66.2025C61.637 66.2336 61.2635 66.1222 60.9663 65.8905C60.6691 65.6587 60.47 65.3236 60.4087 64.9517L59.1187 57.2047H58.8207L57.3627 64.9807C57.2934 65.3477 57.0898 65.6757 56.7915 65.9005C56.4933 66.1253 56.1219 66.2308 55.7501 66.1962C55.3782 66.1617 55.0326 65.9897 54.7808 65.7139C54.529 65.438 54.3892 65.0782 54.3887 64.7047V50.4377C54.1887 50.7423 53.9914 51.0487 53.7967 51.3567L53.7187 51.4797L53.6987 51.5117L53.6937 51.5207C53.5589 51.7371 53.3712 51.9156 53.1483 52.0393C52.9254 52.163 52.6746 52.2279 52.4197 52.2277H47.4197C47.0218 52.2277 46.6403 52.0697 46.359 51.7884C46.0777 51.5071 45.9197 51.1256 45.9197 50.7277C45.9197 50.3299 46.0777 49.9484 46.359 49.6671C46.6403 49.3858 47.0218 49.2277 47.4197 49.2277H51.5967C51.8397 48.8517 52.1597 48.3637 52.4957 47.8737C52.8457 47.3627 53.2317 46.8217 53.5757 46.3977C53.7427 46.1907 53.9297 45.9747 54.1177 45.7977C54.2097 45.7107 54.3377 45.5977 54.4937 45.4977C54.769 45.317 55.0904 45.2191 55.4197 45.2157H61.4197V45.2147Z" fill="#BD0B20"/>
</svg>
