<svg width="148" height="147" viewBox="0 0 148 147" fill="none" xmlns="http://www.w3.org/2000/svg">
<circle cx="74.0001" cy="73.512" r="73.2413" fill="#A91F2F" fill-opacity="0.1"/>
<path d="M93.6279 95.585V101.733H55.082V96.3535L74.3751 74.8762C76.748 72.2336 78.5816 69.9956 79.8759 68.162C81.1972 66.3014 82.114 64.6431 82.6263 63.187C83.1656 61.704 83.4352 60.194 83.4352 58.657C83.4352 56.7155 83.0308 54.9628 82.2218 53.3989C81.4399 51.808 80.2804 50.5406 78.7434 49.5969C77.2064 48.6531 75.3459 48.1812 73.1617 48.1812C70.5462 48.1812 68.362 48.6936 66.6093 49.7182C64.8836 50.7159 63.5893 52.1181 62.7264 53.9247C61.8636 55.7313 61.4321 57.8076 61.4321 60.1535H53.9495C53.9495 56.8369 54.6775 53.8034 56.1336 51.053C57.5897 48.3026 59.7469 46.1184 62.6051 44.5006C65.4633 42.8557 68.9822 42.0333 73.1617 42.0333C76.8829 42.0333 80.0647 42.6939 82.7072 44.0152C85.3497 45.3095 87.3721 47.1431 88.7742 49.516C90.2034 51.8619 90.9179 54.6123 90.9179 57.7671C90.9179 59.4929 90.6213 61.2456 90.0281 63.0252C89.4618 64.7779 88.6664 66.5306 87.6417 68.2833C86.644 70.036 85.4711 71.7618 84.1228 73.4605C82.8016 75.1593 81.3859 76.8311 79.8759 78.476L64.1016 95.585H93.6279Z" fill="#A91F2F"/>
</svg>
