<svg width="95" height="95" viewBox="0 0 95 95" fill="none" xmlns="http://www.w3.org/2000/svg">
<circle cx="47.6107" cy="47.5053" r="41.2942" fill="#A91F2F" fill-opacity="0.1"/>
<path d="M40.522 29.7843C40.522 29.471 40.3975 29.1705 40.1759 28.9489C39.9544 28.7274 39.6539 28.6029 39.3406 28.6029C39.0273 28.6029 38.7268 28.7274 38.5052 28.9489C38.2836 29.1705 38.1592 29.471 38.1592 29.7843V30.9657H36.9778C36.0378 30.9657 35.1363 31.3391 34.4717 32.0038C33.807 32.6684 33.4336 33.5699 33.4336 34.5099V62.8634C33.4336 63.8034 33.807 64.7049 34.4717 65.3695C35.1363 66.0342 36.0378 66.4076 36.9778 66.4076H50.8403C50.2671 65.3144 49.9695 64.0978 49.9731 62.8634C49.973 61.3895 50.5238 59.9688 51.5175 58.8802C52.5112 57.7916 53.8759 57.1139 55.3438 56.9801C54.3565 55.8873 53.7341 54.5141 53.5631 53.0514C53.3921 51.5887 53.6809 50.109 54.3894 48.8179C55.098 47.5268 56.191 46.4885 57.5168 45.8472C58.8425 45.2059 60.3351 44.9934 61.7871 45.2393V34.5099C61.7871 33.5699 61.4137 32.6684 60.749 32.0038C60.0844 31.3391 59.1829 30.9657 58.2429 30.9657H57.0615V29.7843C57.0615 29.471 56.9371 29.1705 56.7155 28.9489C56.4939 28.7274 56.1935 28.6029 55.8801 28.6029C55.5668 28.6029 55.2663 28.7274 55.0448 28.9489C54.8232 29.1705 54.6987 29.471 54.6987 29.7843V30.9657H48.7917V29.7843C48.7917 29.471 48.6673 29.1705 48.4457 28.9489C48.2242 28.7274 47.9237 28.6029 47.6104 28.6029C47.297 28.6029 46.9965 28.7274 46.775 28.9489C46.5534 29.1705 46.429 29.471 46.429 29.7843V30.9657H40.522V29.7843ZM40.522 41.5983C40.522 41.285 40.6464 40.9845 40.868 40.7629C41.0896 40.5414 41.39 40.4169 41.7034 40.4169H53.5173C53.8307 40.4169 54.1312 40.5414 54.3527 40.7629C54.5743 40.9845 54.6987 41.285 54.6987 41.5983C54.6987 41.9116 54.5743 42.2121 54.3527 42.4337C54.1312 42.6552 53.8307 42.7797 53.5173 42.7797H41.7034C41.39 42.7797 41.0896 42.6552 40.868 42.4337C40.6464 42.2121 40.522 41.9116 40.522 41.5983ZM40.522 55.775C40.522 55.4617 40.6464 55.1612 40.868 54.9397C41.0896 54.7181 41.39 54.5936 41.7034 54.5936H46.429C46.7423 54.5936 47.0428 54.7181 47.2643 54.9397C47.4859 55.1612 47.6104 55.4617 47.6104 55.775C47.6104 56.0884 47.4859 56.3889 47.2643 56.6104C47.0428 56.832 46.7423 56.9564 46.429 56.9564H41.7034C41.39 56.9564 41.0896 56.832 40.868 56.6104C40.6464 56.3889 40.522 56.0884 40.522 55.775ZM40.522 48.6867C40.522 48.3733 40.6464 48.0728 40.868 47.8513C41.0896 47.6297 41.39 47.5053 41.7034 47.5053H49.9731C50.2865 47.5053 50.587 47.6297 50.8085 47.8513C51.0301 48.0728 51.1545 48.3733 51.1545 48.6867C51.1545 49 51.0301 49.3005 50.8085 49.522C50.587 49.7436 50.2865 49.8681 49.9731 49.8681H41.7034C41.39 49.8681 41.0896 49.7436 40.868 49.522C40.6464 49.3005 40.522 49 40.522 48.6867ZM65.3313 52.2309C65.3313 53.4842 64.8334 54.6861 63.9472 55.5723C63.061 56.4586 61.859 56.9564 60.6057 56.9564C59.3524 56.9564 58.1504 56.4586 57.2642 55.5723C56.378 54.6861 55.8801 53.4842 55.8801 52.2309C55.8801 50.9775 56.378 49.7756 57.2642 48.8894C58.1504 48.0031 59.3524 47.5053 60.6057 47.5053C61.859 47.5053 63.061 48.0031 63.9472 48.8894C64.8334 49.7756 65.3313 50.9775 65.3313 52.2309ZM68.8755 62.8634C68.8755 65.8051 66.5127 68.7704 60.6057 68.7704C54.6987 68.7704 52.3359 65.8169 52.3359 62.8634C52.3359 61.9234 52.7093 61.022 53.374 60.3573C54.0387 59.6926 54.9401 59.3192 55.8801 59.3192H65.3313C66.2713 59.3192 67.1728 59.6926 67.8374 60.3573C68.5021 61.022 68.8755 61.9234 68.8755 62.8634Z" fill="#BD0B20"/>
</svg>
