<svg width="96" height="95" viewBox="0 0 96 95" fill="none" xmlns="http://www.w3.org/2000/svg">
<g clip-path="url(#clip0_3811_3220)">
<path d="M41.7408 0.249512C35.1392 0.250352 28.6357 1.84701 22.7843 4.90346C16.9329 7.95991 11.9071 12.3856 8.13505 17.8033C4.363 23.2211 1.95652 29.4704 1.12065 36.0189C0.284772 42.5673 1.04428 49.2207 3.33445 55.4123C5.62462 61.6039 9.37758 67.1501 14.2736 71.5784C19.1696 76.0067 25.0635 79.1859 31.4532 80.845C37.8429 82.5041 44.5389 82.594 50.9708 81.107C57.4028 79.6201 63.3799 76.6003 68.393 72.3051L89.9165 93.8411L94.3774 89.3801L72.8414 67.8504C77.9368 61.903 81.2201 54.6193 82.3021 46.8628C83.3841 39.1063 82.2195 31.2021 78.9462 24.0873C75.673 16.9725 70.4284 10.9454 63.8341 6.72036C57.2398 2.49537 49.5724 0.24969 41.7408 0.249512V0.249512Z" fill="#A91F2F" fill-opacity="0.1"/>
</g>
<g clip-path="url(#clip1_3811_3220)">
<path d="M34.3852 39.4588C38.783 39.4588 42.3425 35.8993 42.3425 31.5015C42.3425 27.1037 38.783 23.5442 34.3852 23.5442C29.9874 23.5442 26.4279 27.1037 26.4279 31.5015C26.4279 35.8993 29.9874 39.4588 34.3852 39.4588ZM39.8416 41.7323H39.2519C37.7742 42.4428 36.133 42.8691 34.3852 42.8691C32.6374 42.8691 31.0034 42.4428 29.5185 41.7323H28.9288C24.4102 41.7323 20.7441 45.3983 20.7441 49.917V51.9631C20.7441 53.8459 22.2717 55.3734 24.1544 55.3734H44.616C46.4988 55.3734 48.0263 53.8459 48.0263 51.9631V49.917C48.0263 45.3983 44.3602 41.7323 39.8416 41.7323ZM54.8468 39.4588C58.6123 39.4588 61.6673 36.4038 61.6673 32.6383C61.6673 28.8728 58.6123 25.8177 54.8468 25.8177C51.0813 25.8177 48.0263 28.8728 48.0263 32.6383C48.0263 36.4038 51.0813 39.4588 54.8468 39.4588ZM58.2571 41.7323H57.9871C56.9995 42.0733 55.9551 42.3007 54.8468 42.3007C53.7385 42.3007 52.6941 42.0733 51.7065 41.7323H51.4365C49.9872 41.7323 48.6515 42.1515 47.4792 42.8264C49.2128 44.695 50.2998 47.1745 50.2998 49.917V52.6452C50.2998 52.8015 50.2643 52.9507 50.2572 53.0999H62.8041C64.6869 53.0999 66.2144 51.5724 66.2144 49.6896C66.2144 45.2918 62.6549 41.7323 58.2571 41.7323Z" fill="#BD0B20"/>
</g>
<defs>
<clipPath id="clip0_3811_3220">
<rect width="94.5115" height="94.5115" fill="white" transform="translate(0.791016 0.249512)"/>
</clipPath>
<clipPath id="clip1_3811_3220">
<rect width="45.4702" height="36.3762" fill="white" transform="translate(20.7441 21.2707)"/>
</clipPath>
</defs>
</svg>
