<svg width="96" height="95" viewBox="0 0 96 95" fill="none" xmlns="http://www.w3.org/2000/svg">
<circle cx="48.0023" cy="47.5053" r="41.2942" fill="#A91F2F" fill-opacity="0.1"/>
<g clip-path="url(#clip0_3811_3267)">
<path d="M40.1254 45.0635H38.9833C37.4247 45.0072 35.8712 45.2717 34.4191 45.8408C32.967 46.4099 31.6474 47.2714 30.5421 48.3717L30.2271 48.7393V59.6091H35.5832V53.439L36.3052 52.6251L36.6334 52.2444C38.3425 50.4885 40.4704 49.1965 42.8166 48.4898C41.6419 47.596 40.7155 46.4165 40.1254 45.0635Z" fill="#BD0B20"/>
<path d="M65.5145 48.3323C64.4092 47.232 63.0896 46.3705 61.6375 45.8014C60.1855 45.2324 58.6319 44.9678 57.0733 45.0241C56.5953 45.0255 56.1177 45.0518 55.6424 45.1029C55.0413 46.3722 54.1401 47.4761 53.0168 48.3192C55.5216 49.0121 57.7906 50.3735 59.5807 52.2575L59.9089 52.6251L60.6178 53.439V59.6222H65.7902V48.6999L65.5145 48.3323Z" fill="#BD0B20"/>
<path d="M38.944 42.5036H39.3509C39.1619 40.88 39.4467 39.2364 40.1712 37.7711C40.8957 36.3059 42.0288 35.0817 43.4337 34.2462C42.9244 33.4682 42.2218 32.8358 41.3947 32.4109C40.5676 31.986 39.6443 31.7832 38.7152 31.8223C37.7862 31.8615 36.8832 32.1412 36.0948 32.6342C35.3063 33.1272 34.6594 33.8165 34.2174 34.6346C33.7754 35.4527 33.5534 36.3716 33.5732 37.3012C33.5931 38.2309 33.854 39.1395 34.3304 39.938C34.8069 40.7365 35.4826 41.3977 36.2913 41.8566C37.1001 42.3155 38.0141 42.5566 38.944 42.5561V42.5036Z" fill="#BD0B20"/>
<path d="M56.4432 41.519C56.4591 41.8207 56.4591 42.1231 56.4432 42.4248C56.6951 42.4647 56.9496 42.4867 57.2046 42.4904H57.454C58.3798 42.4411 59.2771 42.1528 60.0584 41.6538C60.8397 41.1547 61.4785 40.4619 61.9126 39.6427C62.3466 38.8234 62.5612 37.9058 62.5353 36.979C62.5095 36.0523 62.2441 35.148 61.765 34.3543C61.2859 33.5606 60.6095 32.9044 59.8016 32.4497C58.9936 31.995 58.0817 31.7572 57.1546 31.7596C56.2275 31.7619 55.3168 32.0042 54.5112 32.463C53.7056 32.9218 53.0324 33.5813 52.5574 34.3775C53.7455 35.1532 54.7226 36.2118 55.4008 37.4583C56.079 38.7047 56.4372 40.1 56.4432 41.519Z" fill="#BD0B20"/>
<path d="M47.8315 47.4002C51.0724 47.4002 53.6996 44.773 53.6996 41.5321C53.6996 38.2912 51.0724 35.664 47.8315 35.664C44.5906 35.664 41.9634 38.2912 41.9634 41.5321C41.9634 44.773 44.5906 47.4002 47.8315 47.4002Z" fill="#BD0B20"/>
<path d="M48.1464 50.5246C46.432 50.4554 44.7213 50.7338 43.1172 51.3429C41.5132 51.952 40.0489 52.8794 38.8126 54.0691L38.4844 54.4367V62.7466C38.4895 63.0173 38.5479 63.2843 38.6562 63.5324C38.7646 63.7805 38.9207 64.0048 39.1158 64.1926C39.3108 64.3803 39.541 64.5278 39.793 64.6266C40.0451 64.7254 40.3141 64.7735 40.5848 64.7683H55.6686C55.9393 64.7735 56.2084 64.7254 56.4604 64.6266C56.7125 64.5278 56.9426 64.3803 57.1377 64.1926C57.3327 64.0048 57.4889 63.7805 57.5972 63.5324C57.7056 63.2843 57.764 63.0173 57.7691 62.7466V54.463L57.454 54.0691C56.2257 52.8757 54.7665 51.9458 53.166 51.3363C51.5655 50.7268 49.8574 50.4506 48.1464 50.5246Z" fill="#BD0B20"/>
</g>
<defs>
<clipPath id="clip0_3811_3267">
<rect width="47.26" height="47.26" fill="white" transform="translate(24.3721 23.8753)"/>
</clipPath>
</defs>
</svg>
