<svg width="147" height="147" viewBox="0 0 147 147" fill="none" xmlns="http://www.w3.org/2000/svg">
<circle cx="73.7589" cy="73.512" r="73.2413" fill="#A91F2F" fill-opacity="0.1"/>
<path d="M65.721 68.6069H71.06C73.6755 68.6069 75.8327 68.1755 77.5315 67.3126C79.2572 66.4228 80.538 65.2229 81.3739 63.7128C82.2368 62.1759 82.6682 60.4501 82.6682 58.5356C82.6682 56.2706 82.2907 54.3696 81.5357 52.8326C80.7807 51.2956 79.6482 50.1362 78.1382 49.3542C76.6282 48.5722 74.7137 48.1812 72.3947 48.1812C70.2915 48.1812 68.4309 48.5992 66.813 49.4351C65.2221 50.244 63.9683 51.4035 63.0515 52.9135C62.1617 54.4235 61.7167 56.2032 61.7167 58.2525H54.2341C54.2341 55.2594 54.9891 52.536 56.4991 50.0822C58.0091 47.6285 60.1258 45.6735 62.8493 44.2174C65.5996 42.7614 68.7815 42.0333 72.3947 42.0333C75.954 42.0333 79.0685 42.667 81.7379 43.9343C84.4074 45.1747 86.4837 47.0352 87.9668 49.516C89.4498 51.9698 90.1913 55.0302 90.1913 58.6974C90.1913 60.1805 89.8408 61.7714 89.1397 63.4702C88.4656 65.142 87.4005 66.7059 85.9444 68.162C84.5153 69.6181 82.6547 70.818 80.3628 71.7618C78.0708 72.6786 75.3204 73.137 72.1116 73.137H65.721V68.6069ZM65.721 74.7548V70.2652H72.1116C75.8597 70.2652 78.9606 70.7101 81.4144 71.6C83.8682 72.4898 85.7961 73.6763 87.1983 75.1593C88.6274 76.6424 89.6251 78.2737 90.1913 80.0534C90.7846 81.8061 91.0812 83.5588 91.0812 85.3115C91.0812 88.0619 90.6093 90.5022 89.6655 92.6324C88.7487 94.7626 87.441 96.5692 85.7422 98.0522C84.0704 99.5353 82.102 100.654 79.8369 101.409C77.5719 102.164 75.1047 102.542 72.4352 102.542C69.8735 102.542 67.4602 102.178 65.1952 101.45C62.9571 100.722 60.9752 99.6701 59.2495 98.2949C57.5237 96.8928 56.1755 95.1805 55.2048 93.1582C54.2341 91.1089 53.7487 88.7764 53.7487 86.1609H61.2314C61.2314 88.2102 61.6763 90.0033 62.5661 91.5403C63.4829 93.0773 64.7772 94.2772 66.449 95.1401C68.1478 95.976 70.1432 96.3939 72.4352 96.3939C74.7272 96.3939 76.6956 96.0029 78.3404 95.221C80.0122 94.412 81.293 93.1986 82.1829 91.5807C83.0997 89.9629 83.5581 87.927 83.5581 85.4733C83.5581 83.0195 83.0457 81.0106 82.0211 79.4467C80.9964 77.8558 79.5403 76.6828 77.6528 75.9278C75.7923 75.1458 73.5946 74.7548 71.06 74.7548H65.721Z" fill="#A91F2F"/>
</svg>
