<svg width="95" height="96" viewBox="0 0 95 96" fill="none" xmlns="http://www.w3.org/2000/svg">
<g clip-path="url(#clip0_3811_3241)">
<circle cx="47.7054" cy="47.7448" r="41.2942" fill="#A91F2F" fill-opacity="0.1"/>
<g clip-path="url(#clip1_3811_3241)">
<path d="M48.8801 28.9448C50.8262 28.9448 52.4051 30.5229 52.4051 32.4698V55.9551C49.5998 57.5266 47.7051 60.5229 47.7051 63.9671C47.7051 64.9145 47.9695 65.7957 48.4321 66.5448H41.8301V60.6698C41.8301 58.7237 40.2512 57.1448 38.3051 57.1448C36.359 57.1448 34.7801 58.7237 34.7801 60.6698V66.5448H27.7301C25.7832 66.5448 24.2051 64.9659 24.2051 63.0198V32.4698C24.2051 30.5229 25.7832 28.9448 27.7301 28.9448H48.8801ZM28.9051 48.9198C28.9051 49.566 29.4309 50.0948 30.0801 50.0948H32.4301C33.0763 50.0948 33.6051 49.566 33.6051 48.9198V46.5698C33.6051 45.9235 33.0763 45.3948 32.4301 45.3948H30.0801C29.4309 45.3948 28.9051 45.9235 28.9051 46.5698V48.9198ZM37.1301 45.3948C36.4838 45.3948 35.9551 45.9235 35.9551 46.5698V48.9198C35.9551 49.566 36.4838 50.0948 37.1301 50.0948H39.4801C40.1263 50.0948 40.6551 49.566 40.6551 48.9198V46.5698C40.6551 45.9235 40.1263 45.3948 39.4801 45.3948H37.1301ZM43.0051 48.9198C43.0051 49.566 43.5338 50.0948 44.1801 50.0948H46.5301C47.1763 50.0948 47.7051 49.566 47.7051 48.9198V46.5698C47.7051 45.9235 47.1763 45.3948 46.5301 45.3948H44.1801C43.5338 45.3948 43.0051 45.9235 43.0051 46.5698V48.9198ZM30.0801 35.9948C29.4309 35.9948 28.9051 36.5235 28.9051 37.1698V39.5198C28.9051 40.166 29.4309 40.6948 30.0801 40.6948H32.4301C33.0763 40.6948 33.6051 40.166 33.6051 39.5198V37.1698C33.6051 36.5235 33.0763 35.9948 32.4301 35.9948H30.0801ZM35.9551 39.5198C35.9551 40.166 36.4838 40.6948 37.1301 40.6948H39.4801C40.1263 40.6948 40.6551 40.166 40.6551 39.5198V37.1698C40.6551 36.5235 40.1263 35.9948 39.4801 35.9948H37.1301C36.4838 35.9948 35.9551 36.5235 35.9551 37.1698V39.5198ZM44.1801 35.9948C43.5338 35.9948 43.0051 36.5235 43.0051 37.1698V39.5198C43.0051 40.166 43.5338 40.6948 44.1801 40.6948H46.5301C47.1763 40.6948 47.7051 40.166 47.7051 39.5198V37.1698C47.7051 36.5235 47.1763 35.9948 46.5301 35.9948H44.1801ZM66.5051 48.9198C66.5051 52.1657 63.876 54.7948 60.6301 54.7948C57.3841 54.7948 54.7551 52.1657 54.7551 48.9198C54.7551 45.6738 57.3841 43.0448 60.6301 43.0448C63.876 43.0448 66.5051 45.6738 66.5051 48.9198ZM50.0551 63.9818C50.0551 60.2071 53.1174 57.1448 56.8921 57.1448H64.368C68.1427 57.1448 71.2051 60.2071 71.2051 63.9818C71.2051 65.3991 70.0594 66.5448 68.6421 66.5448H52.618C51.2007 66.5448 50.0551 65.3991 50.0551 63.9818Z" fill="#BD0B20"/>
</g>
</g>
<defs>
<clipPath id="clip0_3811_3241">
<rect width="94.5115" height="94.5115" fill="white" transform="translate(0.449219 0.948975)"/>
</clipPath>
<clipPath id="clip1_3811_3241">
<rect width="47" height="37.6" fill="white" transform="translate(24.2051 28.9448)"/>
</clipPath>
</defs>
</svg>
