<svg width="71" height="24" fill="none" xmlns="http://www.w3.org/2000/svg">
  <g clip-path="url(#a)">
    <path d="m68.121 14.939 1.943 1.295c-.63.929-2.138 2.522-4.746 2.522-3.238 0-5.649-2.505-5.649-5.692 0-3.39 2.437-5.691 5.377-5.691 2.956 0 4.405 2.351 4.873 3.62l.256.649-7.617 3.152c.579 1.142 1.482 1.721 2.76 1.721 1.278 0 2.164-.63 2.803-1.576Zm-5.972-2.053 5.086-2.114c-.28-.707-1.116-1.21-2.113-1.21-1.27 0-3.033 1.125-2.973 3.324Z" fill="#FF302F"/>
    <path d="M55.997 1.57h2.454v16.666h-2.454V1.57Z" fill="#20B15A"/>
    <path d="M52.129 7.816h2.368v10.122c0 4.2-2.48 5.93-5.41 5.93-2.76 0-4.422-1.857-5.044-3.365l2.172-.904c.392.93 1.338 2.028 2.872 2.028 1.883 0 3.042-1.167 3.042-3.348v-.818h-.086c-.562.681-1.636 1.295-2.999 1.295-2.846 0-5.453-2.48-5.453-5.675 0-3.212 2.607-5.717 5.453-5.717 1.355 0 2.437.605 3 1.27h.085v-.818Zm.17 5.265c0-2.01-1.338-3.476-3.042-3.476-1.721 0-3.17 1.465-3.17 3.476 0 1.986 1.449 3.425 3.17 3.425 1.704.01 3.042-1.44 3.042-3.425Z" fill="#3686F7"/>
    <path d="M30.12 13.039c0 3.28-2.556 5.691-5.692 5.691-3.135 0-5.691-2.42-5.691-5.691 0-3.298 2.556-5.7 5.691-5.7 3.136 0 5.692 2.402 5.692 5.7Zm-2.488 0c0-2.045-1.483-3.451-3.204-3.451-1.72 0-3.203 1.406-3.203 3.45 0 2.029 1.482 3.452 3.203 3.452 1.722 0 3.204-1.423 3.204-3.451Z" fill="#FF302F"/>
    <path d="M42.551 13.064c0 3.28-2.556 5.692-5.691 5.692-3.136 0-5.692-2.411-5.692-5.692 0-3.297 2.556-5.691 5.692-5.691 3.135 0 5.691 2.385 5.691 5.691Zm-2.496 0c0-2.044-1.483-3.45-3.204-3.45-1.72 0-3.203 1.405-3.203 3.45 0 2.028 1.482 3.451 3.203 3.451 1.73 0 3.204-1.431 3.204-3.45Z" fill="#FFBA40"/>
    <path d="M9.381 16.26c-3.57 0-6.365-2.88-6.365-6.45 0-3.57 2.795-6.45 6.365-6.45 1.926 0 3.332.758 4.371 1.73l1.713-1.713C14.016 1.987 12.082.93 9.38.93 4.491.931.375 4.919.375 9.809c0 4.891 4.116 8.879 9.006 8.879 2.642 0 4.635-.87 6.195-2.488 1.601-1.602 2.096-3.851 2.096-5.675 0-.57-.069-1.159-.145-1.593H9.38V11.3h5.803c-.17 1.482-.64 2.496-1.33 3.186-.834.844-2.155 1.772-4.473 1.772Z" fill="#3686F7"/>
  </g>
  <defs>
    <clipPath id="a">
      <path fill="#fff" transform="translate(.273 .896)" d="M0 0h70.029v22.978H0z"/>
    </clipPath>
  </defs>
</svg>
