<svg width="336" height="66" viewBox="0 0 336 66" fill="none" xmlns="http://www.w3.org/2000/svg">
<path d="M111.67 36.3867H114.893C114.807 37.5273 114.49 38.5391 113.943 39.4219C113.396 40.2969 112.635 40.9844 111.658 41.4844C110.682 41.9844 109.498 42.2344 108.107 42.2344C107.037 42.2344 106.072 42.0469 105.213 41.6719C104.361 41.2891 103.631 40.7461 103.021 40.043C102.42 39.332 101.959 38.4805 101.639 37.4883C101.318 36.4883 101.158 35.3672 101.158 34.125V32.8242C101.158 31.582 101.322 30.4609 101.65 29.4609C101.979 28.4609 102.447 27.6094 103.057 26.9062C103.674 26.1953 104.412 25.6484 105.271 25.2656C106.139 24.8828 107.107 24.6914 108.178 24.6914C109.568 24.6914 110.744 24.9492 111.705 25.4648C112.666 25.9727 113.412 26.6719 113.943 27.5625C114.475 28.4531 114.795 29.4766 114.904 30.6328H111.682C111.619 29.9141 111.463 29.3047 111.213 28.8047C110.971 28.3047 110.604 27.9258 110.111 27.668C109.627 27.4023 108.982 27.2695 108.178 27.2695C107.553 27.2695 107.002 27.3867 106.525 27.6211C106.057 27.8555 105.666 28.207 105.354 28.6758C105.041 29.1367 104.807 29.7148 104.65 30.4102C104.494 31.0977 104.416 31.8945 104.416 32.8008V34.125C104.416 34.9922 104.486 35.7695 104.627 36.457C104.768 37.1445 104.986 37.7266 105.283 38.2031C105.58 38.6797 105.963 39.043 106.432 39.293C106.9 39.543 107.459 39.668 108.107 39.668C108.896 39.668 109.537 39.543 110.029 39.293C110.529 39.043 110.908 38.6758 111.166 38.1914C111.432 37.707 111.6 37.1055 111.67 36.3867ZM120.189 24V42H117.084V24H120.189ZM119.697 35.2031H118.783C118.783 34.3203 118.9 33.5078 119.135 32.7656C119.369 32.0234 119.701 31.3789 120.131 30.832C120.561 30.2773 121.072 29.8477 121.666 29.543C122.268 29.2383 122.932 29.0859 123.658 29.0859C124.283 29.0859 124.85 29.1758 125.357 29.3555C125.873 29.5273 126.314 29.8047 126.682 30.1875C127.049 30.5703 127.33 31.0703 127.525 31.6875C127.729 32.2969 127.83 33.0391 127.83 33.9141V42H124.713V33.8906C124.713 33.3047 124.627 32.8438 124.455 32.5078C124.283 32.1641 124.037 31.918 123.717 31.7695C123.404 31.6211 123.018 31.5469 122.557 31.5469C122.057 31.5469 121.627 31.6445 121.268 31.8398C120.908 32.0273 120.611 32.2891 120.377 32.625C120.15 32.9609 119.979 33.3477 119.861 33.7852C119.752 34.2227 119.697 34.6953 119.697 35.2031ZM137.545 39.3047V33.457C137.545 33.0273 137.471 32.6562 137.322 32.3438C137.174 32.0312 136.947 31.7891 136.643 31.6172C136.338 31.4453 135.951 31.3594 135.482 31.3594C135.068 31.3594 134.705 31.4297 134.393 31.5703C134.088 31.7109 133.854 31.9102 133.689 32.168C133.525 32.418 133.443 32.707 133.443 33.0352H130.338C130.338 32.5117 130.463 32.0156 130.713 31.5469C130.963 31.0703 131.318 30.6484 131.779 30.2812C132.248 29.9062 132.807 29.6133 133.455 29.4023C134.111 29.1914 134.846 29.0859 135.658 29.0859C136.619 29.0859 137.475 29.25 138.225 29.5781C138.982 29.8984 139.576 30.3828 140.006 31.0312C140.443 31.6797 140.662 32.4961 140.662 33.4805V39.0117C140.662 39.6445 140.701 40.1875 140.779 40.6406C140.865 41.0859 140.99 41.4727 141.154 41.8008V42H138.002C137.854 41.6797 137.74 41.2734 137.662 40.7812C137.584 40.2812 137.545 39.7891 137.545 39.3047ZM137.979 34.2773L138.002 36.1172H136.045C135.561 36.1172 135.135 36.168 134.768 36.2695C134.4 36.3633 134.1 36.5039 133.865 36.6914C133.631 36.8711 133.455 37.0898 133.338 37.3477C133.221 37.5977 133.162 37.8828 133.162 38.2031C133.162 38.5156 133.232 38.7969 133.373 39.0469C133.521 39.2969 133.732 39.4961 134.006 39.6445C134.287 39.7852 134.615 39.8555 134.99 39.8555C135.537 39.8555 136.014 39.7461 136.42 39.5273C136.826 39.3008 137.143 39.0273 137.369 38.707C137.596 38.3867 137.717 38.082 137.732 37.793L138.623 39.1289C138.514 39.4492 138.35 39.7891 138.131 40.1484C137.912 40.5078 137.631 40.8438 137.287 41.1562C136.943 41.4688 136.529 41.7266 136.045 41.9297C135.561 42.1328 134.998 42.2344 134.357 42.2344C133.537 42.2344 132.803 42.0703 132.154 41.7422C131.506 41.4141 130.994 40.9648 130.619 40.3945C130.244 39.8242 130.057 39.1758 130.057 38.4492C130.057 37.7773 130.182 37.1836 130.432 36.668C130.682 36.1523 131.053 35.7188 131.545 35.3672C132.037 35.0078 132.646 34.7383 133.373 34.5586C134.107 34.3711 134.947 34.2773 135.893 34.2773H137.979ZM146.486 32.0273V42H143.393V29.3203H146.299L146.486 32.0273ZM145.994 35.2031H145.08C145.088 34.2812 145.213 33.4453 145.455 32.6953C145.697 31.9453 146.037 31.3008 146.475 30.7617C146.92 30.2227 147.447 29.8086 148.057 29.5195C148.666 29.2305 149.346 29.0859 150.096 29.0859C150.705 29.0859 151.256 29.1719 151.748 29.3438C152.24 29.5156 152.662 29.7891 153.014 30.1641C153.373 30.5391 153.646 31.0312 153.834 31.6406C154.029 32.2422 154.127 32.9844 154.127 33.8672V42H151.01V33.8438C151.01 33.2656 150.924 32.8086 150.752 32.4727C150.588 32.1367 150.346 31.8984 150.025 31.7578C149.713 31.6172 149.326 31.5469 148.865 31.5469C148.389 31.5469 147.971 31.6445 147.611 31.8398C147.26 32.0273 146.963 32.2891 146.721 32.625C146.486 32.9609 146.307 33.3477 146.182 33.7852C146.057 34.2227 145.994 34.6953 145.994 35.2031ZM164.92 29.3203H167.732V41.6133C167.732 42.7617 167.482 43.7344 166.982 44.5312C166.49 45.3359 165.799 45.9453 164.908 46.3594C164.018 46.7812 162.982 46.9922 161.803 46.9922C161.295 46.9922 160.744 46.9219 160.15 46.7812C159.564 46.6406 158.998 46.418 158.451 46.1133C157.912 45.8164 157.463 45.4297 157.104 44.9531L158.498 43.125C158.92 43.6172 159.396 43.9883 159.928 44.2383C160.459 44.4961 161.033 44.625 161.65 44.625C162.275 44.625 162.807 44.5078 163.244 44.2734C163.689 44.0469 164.029 43.7109 164.264 43.2656C164.506 42.8281 164.627 42.2891 164.627 41.6484V32.2148L164.92 29.3203ZM156.354 35.8125V35.5664C156.354 34.5977 156.471 33.7188 156.705 32.9297C156.939 32.1328 157.275 31.4492 157.713 30.8789C158.158 30.3086 158.693 29.8672 159.318 29.5547C159.951 29.2422 160.662 29.0859 161.451 29.0859C162.287 29.0859 162.99 29.2383 163.561 29.543C164.139 29.8477 164.615 30.2812 164.99 30.8438C165.373 31.4062 165.67 32.0742 165.881 32.8477C166.1 33.6133 166.268 34.457 166.385 35.3789V36.0469C166.275 36.9453 166.1 37.7695 165.857 38.5195C165.623 39.2695 165.311 39.9258 164.92 40.4883C164.529 41.043 164.045 41.4727 163.467 41.7773C162.889 42.082 162.209 42.2344 161.428 42.2344C160.646 42.2344 159.943 42.0742 159.318 41.7539C158.693 41.4336 158.158 40.9844 157.713 40.4062C157.275 39.8281 156.939 39.1484 156.705 38.3672C156.471 37.5859 156.354 36.7344 156.354 35.8125ZM159.447 35.5664V35.8125C159.447 36.3594 159.502 36.8711 159.611 37.3477C159.721 37.8242 159.889 38.2461 160.115 38.6133C160.342 38.9727 160.627 39.2539 160.971 39.457C161.314 39.6602 161.725 39.7617 162.201 39.7617C162.842 39.7617 163.365 39.6289 163.771 39.3633C164.186 39.0898 164.498 38.7188 164.709 38.25C164.928 37.7734 165.068 37.2383 165.131 36.6445V34.8047C165.092 34.3359 165.006 33.9023 164.873 33.5039C164.748 33.1055 164.572 32.7617 164.346 32.4727C164.119 32.1836 163.83 31.957 163.479 31.793C163.127 31.6289 162.709 31.5469 162.225 31.5469C161.756 31.5469 161.346 31.6523 160.994 31.8633C160.643 32.0664 160.354 32.3516 160.127 32.7188C159.9 33.0859 159.729 33.5117 159.611 33.9961C159.502 34.4805 159.447 35.0039 159.447 35.5664ZM176.217 42.2344C175.256 42.2344 174.393 42.0781 173.627 41.7656C172.861 41.4531 172.209 41.0195 171.67 40.4648C171.139 39.9023 170.729 39.25 170.439 38.5078C170.158 37.7578 170.018 36.9531 170.018 36.0938V35.625C170.018 34.6484 170.158 33.7617 170.439 32.9648C170.721 32.1602 171.119 31.4688 171.635 30.8906C172.15 30.3125 172.768 29.8672 173.486 29.5547C174.205 29.2422 174.998 29.0859 175.865 29.0859C176.764 29.0859 177.557 29.2383 178.244 29.543C178.932 29.8398 179.506 30.2617 179.967 30.8086C180.428 31.3555 180.775 32.0117 181.01 32.7773C181.244 33.5352 181.361 34.375 181.361 35.2969V36.5977H171.424V34.4648H178.314V34.2305C178.299 33.7383 178.205 33.2891 178.033 32.8828C177.861 32.4688 177.596 32.1406 177.236 31.8984C176.877 31.6484 176.412 31.5234 175.842 31.5234C175.381 31.5234 174.979 31.625 174.635 31.8281C174.299 32.0234 174.018 32.3047 173.791 32.6719C173.572 33.0312 173.408 33.4609 173.299 33.9609C173.189 34.4609 173.135 35.0156 173.135 35.625V36.0938C173.135 36.625 173.205 37.1172 173.346 37.5703C173.494 38.0234 173.709 38.418 173.99 38.7539C174.279 39.082 174.623 39.3398 175.021 39.5273C175.428 39.707 175.889 39.7969 176.404 39.7969C177.053 39.7969 177.639 39.6719 178.162 39.4219C178.693 39.1641 179.154 38.7852 179.545 38.2852L181.104 39.9023C180.838 40.293 180.479 40.668 180.025 41.0273C179.58 41.3867 179.041 41.6797 178.408 41.9062C177.775 42.125 177.045 42.2344 176.217 42.2344ZM196.209 35.7773H191.814V33.2461H196.209C196.928 33.2461 197.51 33.1289 197.955 32.8945C198.408 32.6523 198.74 32.3242 198.951 31.9102C199.162 31.4883 199.268 31.0078 199.268 30.4688C199.268 29.9453 199.162 29.457 198.951 29.0039C198.74 28.5508 198.408 28.1836 197.955 27.9023C197.51 27.6211 196.928 27.4805 196.209 27.4805H192.869V42H189.646V24.9375H196.209C197.537 24.9375 198.67 25.1758 199.607 25.6523C200.553 26.1211 201.271 26.7734 201.764 27.6094C202.264 28.4375 202.514 29.3828 202.514 30.4453C202.514 31.5469 202.264 32.4961 201.764 33.293C201.271 34.0898 200.553 34.7031 199.607 35.1328C198.67 35.5625 197.537 35.7773 196.209 35.7773ZM208.092 29.3203V42H204.986V29.3203H208.092ZM204.775 26.0039C204.775 25.543 204.932 25.1602 205.244 24.8555C205.564 24.5508 205.994 24.3984 206.533 24.3984C207.072 24.3984 207.498 24.5508 207.811 24.8555C208.131 25.1602 208.291 25.543 208.291 26.0039C208.291 26.457 208.131 26.8359 207.811 27.1406C207.498 27.4453 207.072 27.5977 206.533 27.5977C205.994 27.5977 205.564 27.4453 205.244 27.1406C204.932 26.8359 204.775 26.457 204.775 26.0039ZM216.248 39.7969C216.686 39.7969 217.076 39.7109 217.42 39.5391C217.764 39.3672 218.037 39.125 218.24 38.8125C218.451 38.5 218.564 38.1367 218.58 37.7227H221.498C221.482 38.582 221.24 39.3516 220.771 40.0312C220.303 40.7109 219.678 41.25 218.896 41.6484C218.123 42.0391 217.256 42.2344 216.295 42.2344C215.318 42.2344 214.467 42.0703 213.74 41.7422C213.014 41.4141 212.408 40.957 211.924 40.3711C211.447 39.7852 211.088 39.1055 210.846 38.332C210.611 37.5586 210.494 36.7305 210.494 35.8477V35.4727C210.494 34.5898 210.611 33.7617 210.846 32.9883C211.088 32.2148 211.447 31.5352 211.924 30.9492C212.408 30.3633 213.014 29.9062 213.74 29.5781C214.467 29.25 215.314 29.0859 216.283 29.0859C217.307 29.0859 218.205 29.2852 218.979 29.6836C219.76 30.082 220.369 30.6445 220.807 31.3711C221.252 32.0977 221.482 32.9531 221.498 33.9375H218.58C218.564 33.4844 218.463 33.0781 218.275 32.7188C218.088 32.3594 217.822 32.0703 217.479 31.8516C217.135 31.6328 216.717 31.5234 216.225 31.5234C215.701 31.5234 215.264 31.6328 214.912 31.8516C214.568 32.0703 214.299 32.3711 214.104 32.7539C213.916 33.1289 213.783 33.5508 213.705 34.0195C213.635 34.4805 213.6 34.9648 213.6 35.4727V35.8477C213.6 36.3633 213.635 36.8555 213.705 37.3242C213.783 37.793 213.916 38.2148 214.104 38.5898C214.299 38.957 214.568 39.25 214.912 39.4688C215.264 39.6875 215.709 39.7969 216.248 39.7969ZM229.561 29.3203V31.5469H222.295V29.3203H229.561ZM224.24 26.2031H227.346V38.3438C227.346 38.7188 227.396 39.0078 227.498 39.2109C227.6 39.4141 227.752 39.5508 227.955 39.6211C228.158 39.6914 228.4 39.7266 228.682 39.7266C228.885 39.7266 229.072 39.7148 229.244 39.6914C229.416 39.668 229.561 39.6445 229.678 39.6211L229.689 41.9414C229.432 42.0273 229.139 42.0977 228.811 42.1523C228.49 42.207 228.127 42.2344 227.721 42.2344C227.025 42.2344 226.416 42.1172 225.893 41.8828C225.369 41.6406 224.963 41.2539 224.674 40.7227C224.385 40.1836 224.24 39.4727 224.24 38.5898V26.2031ZM239.17 38.9883V29.3203H242.287V42H239.357L239.17 38.9883ZM239.568 36.3633L240.529 36.3398C240.529 37.1914 240.436 37.9766 240.248 38.6953C240.061 39.4141 239.768 40.0391 239.369 40.5703C238.979 41.0938 238.482 41.5039 237.881 41.8008C237.279 42.0898 236.568 42.2344 235.748 42.2344C235.123 42.2344 234.553 42.1484 234.037 41.9766C233.521 41.7969 233.076 41.5195 232.701 41.1445C232.334 40.7617 232.049 40.2734 231.846 39.6797C231.643 39.0781 231.541 38.3555 231.541 37.5117V29.3203H234.635V37.5352C234.635 37.957 234.682 38.3086 234.775 38.5898C234.877 38.8711 235.014 39.1016 235.186 39.2812C235.365 39.4531 235.572 39.5781 235.807 39.6562C236.049 39.7266 236.307 39.7617 236.58 39.7617C237.33 39.7617 237.92 39.6133 238.35 39.3164C238.787 39.0117 239.1 38.6055 239.287 38.0977C239.475 37.582 239.568 37.0039 239.568 36.3633ZM248.123 31.9102V42H245.029V29.3203H247.959L248.123 31.9102ZM251.979 29.2383L251.932 32.1211C251.76 32.0898 251.564 32.0664 251.346 32.0508C251.135 32.0352 250.936 32.0273 250.748 32.0273C250.271 32.0273 249.854 32.0938 249.494 32.2266C249.135 32.3516 248.834 32.5352 248.592 32.7773C248.357 33.0195 248.178 33.3164 248.053 33.668C247.928 34.0117 247.857 34.4023 247.842 34.8398L247.174 34.7578C247.174 33.9531 247.256 33.207 247.42 32.5195C247.584 31.832 247.822 31.2305 248.135 30.7148C248.447 30.1992 248.838 29.8008 249.307 29.5195C249.783 29.2305 250.33 29.0859 250.947 29.0859C251.119 29.0859 251.303 29.1016 251.498 29.1328C251.701 29.1562 251.861 29.1914 251.979 29.2383ZM259.139 42.2344C258.178 42.2344 257.314 42.0781 256.549 41.7656C255.783 41.4531 255.131 41.0195 254.592 40.4648C254.061 39.9023 253.65 39.25 253.361 38.5078C253.08 37.7578 252.939 36.9531 252.939 36.0938V35.625C252.939 34.6484 253.08 33.7617 253.361 32.9648C253.643 32.1602 254.041 31.4688 254.557 30.8906C255.072 30.3125 255.689 29.8672 256.408 29.5547C257.127 29.2422 257.92 29.0859 258.787 29.0859C259.686 29.0859 260.479 29.2383 261.166 29.543C261.854 29.8398 262.428 30.2617 262.889 30.8086C263.35 31.3555 263.697 32.0117 263.932 32.7773C264.166 33.5352 264.283 34.375 264.283 35.2969V36.5977H254.346V34.4648H261.236V34.2305C261.221 33.7383 261.127 33.2891 260.955 32.8828C260.783 32.4688 260.518 32.1406 260.158 31.8984C259.799 31.6484 259.334 31.5234 258.764 31.5234C258.303 31.5234 257.9 31.625 257.557 31.8281C257.221 32.0234 256.939 32.3047 256.713 32.6719C256.494 33.0312 256.33 33.4609 256.221 33.9609C256.111 34.4609 256.057 35.0156 256.057 35.625V36.0938C256.057 36.625 256.127 37.1172 256.268 37.5703C256.416 38.0234 256.631 38.418 256.912 38.7539C257.201 39.082 257.545 39.3398 257.943 39.5273C258.35 39.707 258.811 39.7969 259.326 39.7969C259.975 39.7969 260.561 39.6719 261.084 39.4219C261.615 39.1641 262.076 38.7852 262.467 38.2852L264.025 39.9023C263.76 40.293 263.4 40.668 262.947 41.0273C262.502 41.3867 261.963 41.6797 261.33 41.9062C260.697 42.125 259.967 42.2344 259.139 42.2344Z" fill="#A91F2F"/>
<rect width="301" height="66" rx="7" fill="#A91F2F" fill-opacity="0.1"/>
<path d="M79.12 30.6051C79.3955 29.9154 79.55 29.1613 79.55 28.375C79.55 24.959 76.6609 22.1875 73.1 22.1875C71.7764 22.1875 70.5402 22.5742 69.5189 23.2316C67.6578 20.1379 64.1842 18.0625 60.2 18.0625C54.2606 18.0625 49.45 22.6773 49.45 28.375C49.45 28.549 49.4567 28.723 49.4634 28.8971C45.7009 30.1668 43 33.6086 43 37.6562C43 42.7803 47.3336 46.9375 52.675 46.9375H77.4C82.1502 46.9375 86 43.2443 86 38.6875C86 34.6979 83.0438 31.3656 79.12 30.6051ZM69.4316 34.5625H65.0375V41.7812C65.0375 42.3484 64.5538 42.8125 63.9625 42.8125H60.7375C60.1463 42.8125 59.6625 42.3484 59.6625 41.7812V34.5625H55.2684C54.3077 34.5625 53.8306 33.4539 54.5092 32.8029L61.5908 26.0096C62.0073 25.61 62.6927 25.61 63.1092 26.0096L70.1908 32.8029C70.8694 33.4539 70.3856 34.5625 69.4316 34.5625Z" fill="#A91F2F"/>
</svg>
