<svg width="80" height="24" fill="none" xmlns="http://www.w3.org/2000/svg">
  <g clip-path="url(#a)">
    <path d="M27.73 3.635c-1.014.45-2.103.753-3.247.89a5.669 5.669 0 0 0 2.486-3.127 11.32 11.32 0 0 1-3.59 1.371 5.652 5.652 0 0 0-9.631 5.155A16.047 16.047 0 0 1 2.098 2.02a5.627 5.627 0 0 0-.765 2.841c0 1.961.998 3.691 2.515 4.705a5.63 5.63 0 0 1-2.56-.707v.07a5.656 5.656 0 0 0 4.533 5.543 5.66 5.66 0 0 1-2.552.097 5.658 5.658 0 0 0 5.28 3.925 11.341 11.341 0 0 1-7.02 2.42c-.456 0-.906-.027-1.348-.08a15.998 15.998 0 0 0 8.664 2.54c10.396 0 16.08-8.613 16.08-16.081 0-.246-.005-.49-.016-.732 1.107-.8 2.062-1.79 2.82-2.925Z" fill="#55ACEE"/>
  </g>
  <path d="M36.566 7.11v2.078h1.445v1.656h-1.445v4.22c0 .312.06.536.18.671.12.136.348.203.687.203.25 0 .471-.018.664-.055v1.712a4.648 4.648 0 0 1-1.367.203c-1.584 0-2.39-.8-2.422-2.399v-4.554h-1.234V9.188h1.234V7.11h2.258Zm10.054 7.461 1.11-5.383h2.18l-2.157 8.453h-1.89l-1.602-5.32-1.602 5.32h-1.882L38.62 9.188h2.18l1.102 5.375 1.547-5.375h1.632l1.54 5.383Zm6.797 3.07h-2.265V9.188h2.265v8.453ZM51.02 7.001c0-.339.112-.617.336-.836.229-.219.539-.328.93-.328.385 0 .692.109.921.328.23.219.344.497.344.836 0 .343-.117.625-.351.843-.23.22-.534.329-.915.329-.38 0-.687-.11-.922-.329-.229-.218-.343-.5-.343-.843Zm6.968.11v2.077h1.446v1.656h-1.446v4.22c0 .312.06.536.18.671.12.136.35.203.688.203.25 0 .471-.018.664-.055v1.712a4.648 4.648 0 0 1-1.367.203c-1.584 0-2.391-.8-2.422-2.399v-4.554h-1.235V9.188h1.235V7.11h2.258Zm5.407 0v2.077h1.445v1.656h-1.445v4.22c0 .312.06.536.18.671.12.136.348.203.687.203.25 0 .471-.018.664-.055v1.712a4.648 4.648 0 0 1-1.367.203c-1.584 0-2.39-.8-2.422-2.399v-4.554h-1.234V9.188h1.234V7.11h2.258Zm6.593 10.687c-1.239 0-2.25-.38-3.03-1.141-.777-.76-1.165-1.774-1.165-3.04V13.4c0-.849.164-1.607.492-2.273.328-.672.792-1.188 1.391-1.547.604-.365 1.292-.547 2.063-.547 1.156 0 2.065.365 2.726 1.094.667.729 1 1.763 1 3.101v.922h-5.383c.073.552.292.995.656 1.328.37.334.837.5 1.399.5.87 0 1.55-.315 2.039-.945l1.11 1.242a3.42 3.42 0 0 1-1.376 1.125 4.549 4.549 0 0 1-1.922.399Zm-.257-6.938c-.448 0-.813.151-1.094.453-.276.302-.453.735-.531 1.297h3.14v-.18c-.01-.5-.145-.885-.406-1.156-.26-.276-.63-.414-1.11-.414Zm9.773.445a6.146 6.146 0 0 0-.812-.062c-.855 0-1.414.289-1.68.867v5.531h-2.258V9.188h2.133l.063 1.008c.453-.776 1.08-1.164 1.882-1.164.25 0 .485.034.703.102l-.03 2.171Z" fill="#55ACEE"/>
  <defs>
    <clipPath id="a">
      <path fill="#fff" transform="translate(.18 .896)" d="M0 0h27.549v22.491H0z"/>
    </clipPath>
  </defs>
</svg>
