<svg width="616" height="617" viewBox="0 0 616 617" fill="none" xmlns="http://www.w3.org/2000/svg">
<g clip-path="url(#clip0_2728_1179)">
<path d="M304.8 368.764L282.646 368.641L280 369.687L277.846 369.502L274.707 370.672L274.03 372.333L277.723 377.687L279.2 383.41L281.415 391.656L279.076 395.041L278.707 396.764L280.492 401.872L282.4 407.041L284.615 410.118L284.984 414.918L284.123 421.256L281.661 425.01L277.292 430.61L275.507 434.056L272.984 441.748L272.492 445.379L269.846 453.195L268.677 460.702L269.292 466.056L272.923 464.395L277.353 462.979L282.153 463.225L286.523 467.102L287.692 466.487L317.723 466.118L322.769 470.179L340.676 471.41L354.461 467.902L349.784 462.61L344.984 455.656L345.969 428.579L361.538 428.641L360.923 425.748L362.153 422.549L360.923 418.549L361.846 414.425L361.107 411.779L357.723 411.287L353.046 412.518L349.784 412.333L347.938 413.133L348.492 402.979L346.092 399.841L345.599 394.61L346.769 389.441L345.292 386.179L345.23 380.825L336.123 380.887L336.799 377.81L332.984 377.872L332.553 379.349L327.876 379.656L325.969 384.641L324.8 386.733L320.676 385.564L318.215 386.733L313.23 387.41L310.4 382.979L308.738 380.21L306.584 375.102L304.8 368.764ZM275.63 367.102L275.876 363.41L277.107 361.256L279.876 359.472L277.046 356.518L274.769 357.933L271.692 361.626L273.723 368.026L275.63 367.102Z" fill="#6E6893" fill-opacity="0.17" stroke="#F4F4F4" stroke-opacity="0.2" stroke-width="0.615384" stroke-linejoin="round"/>
<path d="M411.692 342.61L411.323 339.287L407.323 338.733L404.984 343.595L400.43 342.918L402.276 346.795L402.338 348.272L404.984 356.395V356.764L405.723 356.641L408.492 353.564L411.507 349.133L413.353 347.349L413.292 344.579L411.692 342.61Z" fill="#6E6893" fill-opacity="0.17" stroke="#F4F4F4" stroke-opacity="0.2" stroke-width="0.615384" stroke-linejoin="round"/>
<path d="M209.23 219.472L203.507 214.549L200.861 214.61L198.338 217.072L196.738 219.656L193.046 220.395L191.507 224.149L188.984 225.133L188 229.564L190.277 232.087L192.923 235.102L193.169 239.287L194.707 241.01L194.4 260.579L196.246 266.425L202.461 265.441L202.831 251.718L202.646 246.302L204.061 240.949L206.338 238.302L209.969 233.072L209.169 230.795L210.646 227.349L208.923 222.302L209.23 219.472Z" fill="#6E6893" fill-opacity="0.17" stroke="#F4F4F4" stroke-opacity="0.2" stroke-width="0.615384" stroke-linejoin="round"/>
<path d="M185.046 191.656H180.246L178.4 190.056L174.277 191.226L167.323 194.795L165.908 197.441L160.123 201.256L159.077 203.472L155.938 205.195L152.369 204.026L150.277 206.118L149.169 211.964L143.2 218.979L143.385 221.872L141.292 225.502L141.785 230.426L145.169 232.272L146.461 235.102L149.785 236.887L152.431 234.795L155.938 234.426L161.046 236.641L160.061 230.241L160.246 225.379L173.231 225.01L176.554 225.626L178.954 224.272L182.4 224.949L188.984 225.133L191.508 224.149L193.046 220.395L196.738 219.656L198.338 217.072L198.523 211.226L189.908 209.318L189.661 205.195L185.415 199.656L184.431 195.779L185.046 191.656Z" fill="#6E6893" fill-opacity="0.17" stroke="#F4F4F4" stroke-opacity="0.2" stroke-width="0.615384" stroke-linejoin="round"/>
<path d="M369.599 469.748L368.246 469.133L364 471.04H361.784L356.923 474.364L354.215 470.856L342.707 473.871L337.169 474.117L336 504.456L328.738 504.764L327.876 529.625L329.846 530.856L333.846 538.979L332.923 544.148L334.461 547.163L339.692 546.302L343.507 542.487L347.076 539.902L349.046 535.84L352.738 533.871L355.753 534.917L359.138 537.317L365.046 537.687L369.846 535.717L370.707 533.071L372.184 529.01L376.184 528.333L378.584 525.133L381.292 519.41L388.184 513.071L398.83 506.794L394.338 502.979L388.676 501.687L386.769 496.271L386.892 493.256L383.753 492.333L375.753 482.979L373.599 478.056L372.184 476.579L369.599 469.748Z" fill="#6E6893" fill-opacity="0.17" stroke="#F4F4F4" stroke-opacity="0.2" stroke-width="0.615384" stroke-linejoin="round"/>
<path d="M361.23 245.379L360.615 244.949L358.03 242.487L357.476 239.841L358.646 236.333L358.584 232.826L354.153 227.533L353.23 223.903L348.492 225.318L344.799 228.764L339.507 238.056L332.553 241.995L325.292 241.503L323.2 242.241L323.938 245.256L320.061 248.21L316.923 251.533L307.507 254.795L305.661 252.887L304.369 252.703L303.015 254.918L296.861 255.533L293.107 264.149L291.323 265.749L290.83 272.333L291.569 275.903L291.015 278.426L294.584 282.918L295.2 285.933L298.03 290.364L301.476 293.072L301.846 296.949L302.646 299.41L306.523 291.533L311.015 286.979L316.061 288.456L320.923 288.887L321.538 282.979L324.43 278.61L328.43 275.903L334.646 278.795L339.446 281.933L344.984 282.795L350.584 284.456L352.799 279.287L353.784 278.61L357.23 279.472L365.538 275.226L368.553 277.072L370.953 276.764L372.061 274.733L374.83 273.995L380.492 274.856L385.353 275.103L387.815 274.179L386.584 271.472L380.923 268.087L378.953 262.979L375.753 259.287L370.646 254.856L370.584 252.087L366.399 248.703L361.23 245.379Z" fill="#6E6893" fill-opacity="0.17" stroke="#F4F4F4" stroke-opacity="0.2" stroke-width="0.615384" stroke-linejoin="round"/>
<path d="M141.784 230.425L138.708 231.718L136.923 232.764L135.815 229.133L133.661 230.118L132.369 229.933L130.954 232.395L125.169 232.333L123.138 231.041L122.154 231.841L120.615 232.518L120 235.41L121.723 238.918L123.569 245.748L120.738 246.733L120.061 247.902L120.615 249.564L120.123 253.318H118.954L118.584 255.779L119.323 259.902L117.661 263.656L119.877 265.995L122.215 266.548L125.415 270.118L125.6 273.502L124.923 274.548L124.308 281.564L125.723 281.81L133.169 278.671L138.4 276.21L147.323 274.733L152.123 274.61L157.354 276.271L160.8 276.21L161.107 272.825L157.907 265.502L159.877 255.902L163.015 248.764L161.046 236.641L155.938 234.425L152.431 234.795L149.784 236.887L146.461 235.102L145.169 232.271L141.784 230.425Z" fill="#6E6893" fill-opacity="0.17" stroke="#F4F4F4" stroke-opacity="0.2" stroke-width="0.615384" stroke-linejoin="round"/>
<path d="M293.846 225.995L294.092 220.333L293.476 214.733L290.461 209.256L288.369 209.748L288.123 212.456L291.138 215.841L290.338 217.379L290.03 220.21L283.753 226.795L281.846 232.21L280.861 236.641L279.261 238.548L277.784 244.518L273.846 248.025L272.677 252.333L271.015 255.779L270.338 259.287L265.23 262.179L260.984 258.671L258.153 258.794L253.723 263.779L251.507 263.841L248 272.087L246.092 278.118L246.03 280.456L247.938 281.687L249.477 285.502L252.923 286.918L255.877 292.579L254.769 299.287L267.015 299.471L270.584 298.918L275.138 300.087L279.63 298.979L280.553 299.41L290.03 299.779L296.123 301.994L302.092 304.025L302.646 299.41L301.846 296.948L301.476 293.071L298.03 290.364L295.2 285.933L294.584 282.918L291.015 278.425L291.569 275.902L290.83 272.333L291.323 265.748L293.107 264.148L296.861 255.533L297.969 253.256L295.569 247.348L294.461 243.841L291.2 242.425L286.769 237.441L288.307 233.441L291.753 234.241L293.846 233.687L298.03 233.748L293.846 225.995Z" fill="#6E6893" fill-opacity="0.17" stroke="#F4F4F4" stroke-opacity="0.2" stroke-width="0.615384" stroke-linejoin="round"/>
<path d="M380.492 274.856L374.83 273.995L372.061 274.733L370.953 276.764L368.553 277.072L365.538 275.225L357.23 279.472L353.784 278.61L352.8 279.287L350.584 284.456L344.984 282.795L339.446 281.933L334.646 278.795L328.43 275.902L324.43 278.61L321.538 282.979L320.923 288.887L320.492 294.056L318.277 298.61L316.8 303.902L315.877 311.472L316.307 316.271L315.077 319.225L314.892 322.364L314.03 325.071L309.046 329.195L305.6 333.564L302.338 341.81L302.523 348.825L300.615 351.533L296.184 355.718L291.754 361.071L288.984 359.533L288.492 357.133L284.43 357.071L281.846 360.333L279.877 359.471L277.107 361.256L275.877 363.41L275.63 367.102L273.723 368.025L274.707 370.671L277.846 369.502L280 369.687L282.646 368.641L304.8 368.764L306.584 375.102L308.738 380.21L310.4 382.979L313.23 387.41L318.215 386.733L320.677 385.564L324.8 386.733L325.969 384.641L327.877 379.656L332.553 379.348L332.984 377.871L336.8 377.81L336.123 380.887L345.23 380.825L345.292 386.179L346.769 389.441L345.6 394.61L346.092 399.841L348.492 402.979L347.938 413.133L349.784 412.333L353.046 412.518L357.723 411.287L361.107 411.779L363.692 411.964L364.061 414.61L367.569 414.425L372.307 415.225L374.707 419.041L380.676 420.271L385.292 417.564L386.892 422.056L392.553 423.225L395.2 426.856L398.153 431.533L403.876 431.594L403.507 422.425L401.415 423.964L396.246 420.641L394.276 419.164L395.446 410.61L396.984 400.518L395.384 396.764L397.6 391.348L399.63 390.302L409.723 388.887L411.015 389.256L411.384 387.841L409.292 385.564L408.369 380.887L403.876 376.21L401.353 370.118L402.769 366.548L400.8 361.748L402.276 348.148L402.338 348.271L402.276 346.795L400.43 342.918L401.169 338.241L402.215 337.625L402.523 332.518L404.676 330.179L404.738 323.718L406.523 320.456L406.892 313.625L408.492 309.687L411.323 305.256L414.215 302.979L416.615 299.964L413.6 298.795L413.969 288.887L407.261 283.225L405.476 279.595L401.292 281.379L397.784 280.825L395.815 282.241L392.43 281.195L387.815 274.179L385.353 275.102L380.492 274.856Z" fill="#6E6893" fill-opacity="0.17" stroke="#F4F4F4" stroke-opacity="0.2" stroke-width="0.615384" stroke-linejoin="round"/>
<path d="M320.923 288.887L316.061 288.456L311.015 286.979L306.523 291.533L302.646 299.41L302.092 304.025L296.123 301.994L290.03 299.779L280.554 299.41L280 303.164L282.092 307.533L287.692 306.856L289.6 308.517L286.338 318.425L289.907 323.471L290.707 330.117L289.723 335.779L287.446 339.779L280.8 339.41L276.8 335.348L276.184 339.102L271.077 340.148L268.492 342.302L271.323 347.902L265.6 352.64L271.692 361.625L274.769 357.933L277.046 356.517L279.877 359.471L281.846 360.333L284.43 357.071L288.492 357.133L288.984 359.533L291.754 361.071L296.184 355.717L300.615 351.533L302.523 348.825L302.338 341.81L305.6 333.564L309.046 329.194L314.03 325.071L314.892 322.364L315.077 319.225L316.307 316.271L315.877 311.471L316.8 303.902L318.277 298.61L320.492 294.056L320.923 288.887Z" fill="#6E6893" fill-opacity="0.17" stroke="#F4F4F4" stroke-opacity="0.2" stroke-width="0.615384" stroke-linejoin="round"/>
<path d="M504.799 221.133L501.538 218.795L505.722 216.764L505.784 213.256L503.938 210.61L501.722 212.703L498.522 211.964L496.061 215.718L493.661 219.718L494.338 222.056L494.522 224.641L498.707 224.764L500.492 224.21L502.215 225.687L504.799 221.133Z" fill="#6E6893" fill-opacity="0.17" stroke="#F4F4F4" stroke-opacity="0.2" stroke-width="0.615384" stroke-linejoin="round"/>
<path d="M241.477 3.9027L236.677 4.39501L233.723 2.42578L226.215 2.48732L219.692 5.87193L216.123 4.57962L204.492 5.31809L192.554 6.85654L185.784 9.5027L181.354 13.0719L173.723 14.5488L166.892 19.2873L169.477 24.8258L169.907 29.995L172.307 39.0411L174.215 40.8257L172.861 44.1488L163.507 45.5642L160.184 48.7026L156.061 49.4411L155.692 55.718L147.2 59.0411L144.369 63.3488L138.461 65.6257L131.2 66.918L119.384 73.1949L119.261 83.2257V83.8411L119.077 85.5026L146.215 106.118L170.831 124.703L195.692 143.287L197.477 147.226L202.092 149.687L205.477 151.041L205.6 156.456L213.784 155.656L224.184 151.841L245.415 135.164L270.338 118.918L267.015 113.564L261.107 109.626L257.723 111.164L255.077 106.426L254.707 102.795L250.277 96.5795L253.107 93.0103L252.307 87.6564L253.169 82.9795L252.554 79.1026L253.661 72.1488L253.169 68.2103L250.646 60.7026L247.138 45.5027L242.646 42.0565L242.523 40.0257L236.554 34.918L235.754 28.5181L240.061 23.7181L241.538 16.5796L240.123 8.33347L241.477 3.9027Z" fill="#6E6893" fill-opacity="0.17" stroke="#F4F4F4" stroke-opacity="0.2" stroke-width="0.615384" stroke-linejoin="round"/>
<path d="M386.953 54.6103L379.63 52.1487L372.553 49.8718L362.953 49.9949L360.676 54.0564L362.03 57.6872L360.553 62.918L363.138 69.8103L364.923 100.087L366.276 131.41H395.876H424.43H453.599L452.246 129.687L443.199 122.056L442.646 116.518L443.999 115.041L436.861 105.626L434.153 100.764L431.138 96.1487L424.676 82.8564L419.507 74.3026L415.753 65.3795L416.43 64.5795L422.646 76.7641L426.215 80.5795L428.861 83.2872L430.399 81.8102L432.061 77.3795L433.046 70.9795L434.769 67.5333L433.846 65.3795L428.615 53.0103L425.292 55.1026L419.63 54.6103L413.722 52.6411L412.307 55.4103L409.969 51.2257L404.738 50.118L398.461 50.8564L395.692 53.2564L390.399 55.9641L386.953 54.6103Z" fill="#6E6893" fill-opacity="0.17" stroke="#F4F4F4" stroke-opacity="0.2" stroke-width="0.615384" stroke-linejoin="round"/>
<path d="M478.522 187.349L474.215 183.164L471.753 175.349L466.953 165.503L463.445 170.364L458.03 171.78L455.815 174.364L455.384 180.026L452.738 192.518L453.661 195.964L462.461 197.749L464.492 191.349L469.169 195.226L473.476 193.256L475.322 195.041L480.43 195.103L487.076 198.549L489.169 201.503L492.553 204.21L495.876 209.195L498.522 211.964L501.722 212.703L503.938 210.61L500.122 208.026L497.661 205.133L493.415 200.21L489.045 195.349L478.522 187.349Z" fill="#6E6893" fill-opacity="0.17" stroke="#F4F4F4" stroke-opacity="0.2" stroke-width="0.615384" stroke-linejoin="round"/>
<path d="M464.492 191.349L462.461 197.749L453.661 195.964L452.799 203.287L450.03 211.656L445.661 215.841L442.707 222.364L442.03 225.872L438.584 228.21L436.553 237.133L436.615 238.179L436.861 244.826L435.753 247.41L431.815 247.595L429.353 252.456L433.969 253.072L437.846 257.195L439.199 260.641L442.707 262.61L447.261 271.841L451.199 273.318L451.261 278.056L453.846 280.887H459.076L468.738 288.087L471.076 288.21L472.861 287.964L474.522 288.949L479.569 289.625L481.722 286.056L488.553 282.487L491.569 285.379H496.738L498.769 282.672L503.569 282.549L510.153 276.518L519.938 276.149L540.553 250.61L534.215 250.672L509.415 240.579L506.461 237.502L503.63 233.441L500.676 228.702L502.215 225.687L500.492 224.21L498.707 224.764L494.522 224.641L494.338 222.056L493.661 219.718L496.061 215.718L498.522 211.964L495.876 209.195L492.553 204.21L489.169 201.502L487.076 198.549L480.43 195.102L475.322 195.041L473.476 193.256L469.169 195.226L464.492 191.349Z" fill="#6E6893" fill-opacity="0.17" stroke="#F4F4F4" stroke-opacity="0.2" stroke-width="0.615384" stroke-linejoin="round"/>
<path d="M280.553 299.41L279.63 298.979L275.138 300.087L270.584 298.918L267.015 299.472L267.077 309.748L256.184 309.625L253.6 310.118L252.123 316.456L250.277 322.672L248.615 325.379L248.43 328.21L252.923 337.01L257.907 344.025L265.6 352.641L271.323 347.902L268.492 342.302L271.077 340.148L276.184 339.102L276.8 335.348L280.8 339.41L287.446 339.779L289.723 335.779L290.707 330.118L289.907 323.472L286.338 318.425L289.6 308.518L287.692 306.856L282.092 307.533L280 303.164L280.553 299.41Z" fill="#6E6893" fill-opacity="0.17" stroke="#F4F4F4" stroke-opacity="0.2" stroke-width="0.615384" stroke-linejoin="round"/>
<path d="M182.4 224.949L178.954 224.272L176.554 225.626L173.231 225.01L160.246 225.379L160.061 230.241L161.046 236.641L163.015 248.764L159.877 255.902L157.907 265.502L161.107 272.826L160.8 276.21L167.507 278.61L174.277 276.149L178.4 273.256L190.215 268.272L188.492 265.256L186.523 259.841L185.907 255.656L187.569 247.964L185.723 244.887L184.984 238.179V231.964L181.846 227.595L182.4 224.949Z" fill="#6E6893" fill-opacity="0.17" stroke="#F4F4F4" stroke-opacity="0.2" stroke-width="0.615384" stroke-linejoin="round"/>
<path d="M96.2461 212.825L95.1384 213.256L91.0769 212.579L90.523 213.564L88.8615 213.749L83.5077 211.656L79.9384 211.595L79.7538 214.487L78.9538 215.349L79.5077 218.179L78.3384 219.287L76.6769 219.349L74.7077 220.764L72.4308 220.579L69.0461 224.764L71.2615 226.118L72.3077 228.025L73.1077 231.779L74.9538 233.441L76.8615 234.549L79.7538 237.872L83.0154 242.918L87.0153 239.164L87.9384 236.825L89.2307 234.979L91.2615 234.795L93.0461 233.195H99.0153L101.046 236.272L102.646 239.841L102.4 242.302L103.569 244.518L103.508 247.656L105.538 247.164L107.138 246.979L109.108 245.995L112.246 251.225L111.692 254.672L113.169 256.456L115.261 256.518L116.861 253.072L118.954 253.318H120.123L120.615 249.564L120.061 247.902L120.738 246.733L123.569 245.749L121.723 238.918L120 235.41L120.615 232.518L122.154 231.841L119.877 229.379L120.308 226.856L119.323 225.872L117.723 226.672L118.092 223.902L119.631 221.749L116.554 218.179L115.692 215.841L114.031 213.933L112.554 213.749L110.769 214.918L108.308 216.025L106.277 217.872L103.077 217.195L101.046 215.041L99.8153 214.795L97.8461 215.902H96.6153L96.2461 212.825Z" fill="#6E6893" fill-opacity="0.17" stroke="#F4F4F4" stroke-opacity="0.2" stroke-width="0.615384" stroke-linejoin="round"/>
<path d="M56.5537 206.795L63.3229 206.918L65.1691 205.749L66.5229 205.687L69.2922 203.718L72.4922 205.503L75.6921 205.687L78.9537 203.78L77.4768 201.318L75.0152 202.733L72.6768 202.672L69.7845 200.58L67.446 200.703L65.7229 202.733L57.5999 202.98L56.5537 206.795Z" fill="#6E6893" fill-opacity="0.17" stroke="#F4F4F4" stroke-opacity="0.2" stroke-width="0.615384" stroke-linejoin="round"/>
<path d="M79.9383 211.595L66.1537 211.226L64.1229 212.21L61.6614 211.903L57.6614 213.318L58.0921 215.102L60.3691 216.949L60.3075 218.241L61.9691 220.641L65.1075 221.195L69.046 224.764L72.4306 220.579L74.7075 220.764L76.6767 219.349L78.3383 219.287L79.5075 218.179L78.9537 215.349L79.7537 214.487L79.9383 211.595Z" fill="#6E6893" fill-opacity="0.17" stroke="#F4F4F4" stroke-opacity="0.2" stroke-width="0.615384" stroke-linejoin="round"/>
<path d="M267.015 299.471L254.769 299.287L252.246 308.825L253.6 310.118L256.184 309.625L267.077 309.748L267.015 299.471Z" fill="#6E6893" fill-opacity="0.17" stroke="#F4F4F4" stroke-opacity="0.2" stroke-width="0.615384" stroke-linejoin="round"/>
<path d="M496.738 285.379H491.569L488.553 282.487L481.722 286.056L479.569 289.625L474.522 288.948L472.861 287.964L471.076 288.21L468.738 288.087L459.076 280.887H453.846L451.261 278.056L451.199 273.318L447.261 271.841L442.276 277.441L437.723 282.548L441.353 288.456L442.276 292.764L445.661 302.487L442.953 308.702L439.323 314.364L437.169 317.81V318.241L438.953 321.441L438.461 327.779L465.599 345.133L466.03 350.056L476.676 358.548L479.753 355.718L481.292 350.056L483.753 346.671L484.922 340.641L487.753 340.025L489.661 336.456L494.953 333.071L490.522 326.056L490.276 295.041L496.738 285.379Z" fill="#6E6893" fill-opacity="0.17" stroke="#F4F4F4" stroke-opacity="0.2" stroke-width="0.615384" stroke-linejoin="round"/>
<path d="M118.954 253.318L116.861 253.072L115.261 256.518L113.169 256.456L111.692 254.672L112.246 251.226L109.108 245.995L107.138 246.979L105.538 247.164L102.031 251.164L98.646 255.779L98.2153 258.241L96.4307 260.949L101.415 266.426L107.815 271.103L114.584 277.564L122.338 281.626L124.308 281.564L124.923 274.549L125.6 273.503L125.415 270.118L122.215 266.549L119.877 265.995L117.661 263.656L119.323 259.903L118.584 255.779L118.954 253.318Z" fill="#6E6893" fill-opacity="0.17" stroke="#F4F4F4" stroke-opacity="0.2" stroke-width="0.615384" stroke-linejoin="round"/>
<path d="M362.953 49.9949L361.046 47.2257L353.846 46.2411L351.446 44.7642H348.738L346.03 40.9488L336.246 39.2257L331.384 40.3334L326.523 44.3334L324.492 48.4565L326.584 54.9795L323.323 58.8565L319.938 61.0718L312 56.8257L301.723 53.318L295.2 51.6565L291.446 44.0872L281.784 40.3334L275.753 38.918L272.8 39.6565L264.307 36.7026L264.123 43.2257L260.677 45.6872L258.584 48.3949L253.723 51.6565L254.646 55.1642L254.092 58.7334L250.646 60.7026L253.169 68.2103L253.661 72.1487L252.554 79.1026L253.169 82.9795L252.307 87.6564L253.107 93.0103L250.277 96.5795L254.707 102.795L255.077 106.426L257.723 111.164L261.107 109.626L267.015 113.564L270.338 118.918L282.03 122.61L286.277 127.226L291.384 124.087L298.707 119.41L328.492 135.718L358.461 152.026L358.4 148.456H366.892L366.276 131.41L364.923 100.087L363.138 69.8103L360.553 62.918L362.03 57.6872L360.676 54.0565L362.953 49.9949Z" fill="#6E6893" fill-opacity="0.17" stroke="#F4F4F4" stroke-opacity="0.2" stroke-width="0.615384" stroke-linejoin="round"/>
<path d="M384.799 578.794L386.338 576.087L390.461 574.733L391.938 571.964L394.461 567.841L392.123 565.256L389.169 562.671L385.661 564.394L381.476 567.718L377.23 573.071L382.153 579.594L384.799 578.794Z" fill="#6E6893" fill-opacity="0.17" stroke="#F4F4F4" stroke-opacity="0.2" stroke-width="0.615384" stroke-linejoin="round"/>
<path d="M166.892 19.2874L163.815 19.2258L156.492 17.3181L149.723 17.872L145.538 14.2412L140.308 14.1797L137.969 19.472L133.046 28.3951L127.692 31.9027L120.431 35.8412L115.692 41.5643L114.585 46.0566L111.631 53.3181L113.169 63.9027L106.954 70.9796L103.262 73.2565L97.3538 79.0411L90.5846 80.0257L86.8308 83.2873L86.7077 83.4104L81.8462 92.0873L76.8616 95.2257L74.0923 100.457L73.7846 105.01L71.6923 109.995L69.2308 111.349L64.9847 116.764L62.277 122.795L62.7077 125.626L60.1847 130.118L57.2924 132.395L56.8 136.333L56.9231 136.395L73.5385 135.718L74.5231 132.641L77.6 128.826L80.3077 117.072L90.7077 107.841L94.4 97.1334L96.6769 96.4565L99.2615 89.8104L105.415 88.9488L108 90.0565H111.323L113.723 88.0873L118.215 87.8411L118.154 83.2258H119.262L119.385 73.195L131.2 66.9181L138.461 65.6258L144.369 63.3489L147.2 59.0412L155.692 55.7181L156.061 49.4412L160.185 48.7027L163.508 45.5643L172.861 44.1489L174.215 40.8258L172.308 39.0412L169.908 29.9951L169.477 24.8258L166.892 19.2874Z" fill="#6E6893" fill-opacity="0.17" stroke="#F4F4F4" stroke-opacity="0.2" stroke-width="0.615384" stroke-linejoin="round"/>
<path d="M555.63 434.117L554.092 428.517L552.245 424.887L549.845 421.256L547.199 425.071L546.769 430.179L542.399 436.087L539.261 435.04L540.061 438.733L537.599 442.979L531.199 448.21L526.707 453.071L523.384 453.194L520.553 454.733L516.307 456.456L512.615 456.825L511.261 462.179L508.369 466.979L508.492 474.794L509.538 480.148L511.015 484.21L509.969 489.625L506.03 496.087L505.846 498.917L502.338 500.394L500.615 506.548L500.861 512.64L502.953 519.41L502.892 526.979L504.492 531.471L510.092 534.548L514.092 536.702L520.799 533.133L526.892 531.102L531.076 521.194L534.83 509.379L540.553 493.256L545.045 481.502L548.676 471.594L549.661 464.394L551.815 462.425L552.738 458.794L551.692 452.517L553.292 449.994L555.445 454.979L556.922 452.456L557.969 448.394L556.245 444.394L555.63 434.117Z" fill="#6E6893" fill-opacity="0.17" stroke="#F4F4F4" stroke-opacity="0.2" stroke-width="0.615384" stroke-linejoin="round"/>
<path d="M213.784 155.656L205.6 156.456L205.477 151.041L202.092 149.687L197.477 147.226L195.692 143.287L170.831 124.703L146.215 106.118L135.015 106.241L138.154 142.979L141.477 179.718L142.708 180.826L141.046 186.733L111.2 186.856L110.031 188.764L107.2 188.21L102.954 189.872L97.7846 187.533L95.4461 187.718L94.0923 192.764L91.5692 194.302L91.8154 199.595L93.2307 204.456L96 206.856L96.6154 210.118L96.2461 212.825L96.6154 215.902H97.8461L99.8154 214.795L101.046 215.041L103.077 217.195L106.277 217.872L108.308 216.025L110.769 214.918L112.554 213.749L114.031 213.933L115.692 215.841L116.554 218.179L119.631 221.749L118.092 223.902L117.723 226.672L119.323 225.872L120.308 226.856L119.877 229.379L122.154 231.841L123.138 231.041L125.169 232.333L130.954 232.395L132.369 229.933L133.661 230.118L135.815 229.133L136.923 232.764L138.708 231.718L141.785 230.425L141.292 225.502L143.385 221.872L143.2 218.979L149.169 211.964L150.277 206.118L152.369 204.025L155.938 205.195L159.077 203.472L160.123 201.256L165.908 197.441L167.323 194.795L174.277 191.226L178.4 190.056L180.246 191.656H185.046L189.784 191.287L192.554 188.272L202.708 187.533L209.292 186.179L209.908 180.949L213.969 175.287L213.784 155.656Z" fill="#6E6893" fill-opacity="0.17" stroke="#F4F4F4" stroke-opacity="0.2" stroke-width="0.615384" stroke-linejoin="round"/>
<path d="M485.045 410.364L483.999 406.548L477.845 411.533L469.599 414.794L465.107 414.671L462.338 417.256L457.169 417.441L455.138 418.548L446.276 416.148L443.384 416.456L441.353 424.518L442.215 434.241H442.645L445.23 436.948L448.061 443.102L448.245 454.056L444.922 455.902L442.399 461.81L437.784 456.518L437.476 450.548L439.261 446.548L438.953 443.164L436.061 441.01L434.03 441.748L429.845 437.687L407.015 444.702L407.507 450.794L407.876 453.933L414.03 453.748L417.415 455.594L418.953 457.687L422.461 458.302L426.215 461.01L425.722 471.779L423.999 477.687L423.384 484.087L424.43 486.61L423.384 491.594L422.215 492.394L419.999 498.487L411.753 508.148L414.646 520.148L416.184 526.241L414.338 535.717L414.769 538.794L415.569 542.61L415.938 546.364L421.476 546.425L422.399 541.933L420.615 541.379L420.246 537.81L423.63 534.61L432.738 529.994L438.953 527.164L442.215 524.087L443.507 520.579L441.845 519.102L443.322 515.164L443.999 506.794L442.645 507.225L442.707 504.702L441.538 499.717L438.338 493.256L439.322 487.164L442.461 485.194L447.938 479.164L450.83 477.625L459.692 468.456L468.307 464.333L475.261 461.071L480.245 455.841L483.445 449.933L485.969 443.841L484.861 439.656L485.107 426.364L484.492 418.856L485.045 410.364Z" fill="#6E6893" fill-opacity="0.17" stroke="#F4F4F4" stroke-opacity="0.2" stroke-width="0.615384" stroke-linejoin="round"/>
<path d="M146.215 106.118L119.077 85.5024L118.769 98.364L94.8306 97.9332L94.5845 119.718L87.6922 120.518L85.7845 124.887L86.9537 137.195L58.0922 137.133L56.4307 139.964L60.1845 143.656L62.0307 147.656L61.1691 151.902L61.9691 156.149L62.5845 164.579L61.4768 172.579L59.323 176.764L59.8768 181.379L62.4614 178.61L66.1537 179.348L69.7845 177.502L73.9691 177.441L77.4768 179.902L82.3383 182.179L86.7691 188.456L91.5691 194.302L94.0922 192.764L95.446 187.718L97.7845 187.533L102.954 189.872L107.2 188.21L110.031 188.764L111.2 186.856L141.046 186.733L142.707 180.825L141.477 179.718L138.154 142.979L135.015 106.241L146.215 106.118Z" fill="#6E6893" fill-opacity="0.17" stroke="#F4F4F4" stroke-opacity="0.2" stroke-width="0.615384" stroke-linejoin="round"/>
<path d="M439.753 438.364L439.938 435.164L438.276 432.641L438.523 428.948L436.492 422.671L438.769 417.933L438.646 407.656L436.123 402.179L436.369 401.256L434.953 398.918L427.63 397.318L431.076 401.133L432.799 408.333L431.446 410.671L429.784 417.564L431.015 424.641L428.553 427.595L426.03 435.471L429.846 437.687L434.03 441.748L436.061 441.01L438.953 443.164L439.261 446.548L437.476 450.548L437.784 456.518L442.4 461.81L444.923 455.902L448.246 454.056L448.061 443.102L445.23 436.948L442.646 434.241H442.215L442.276 435.41L443.692 435.718L445.046 440.271L444.799 441.318L442.276 438.056L440.923 440.148L439.753 438.364Z" fill="#6E6893" fill-opacity="0.17" stroke="#F4F4F4" stroke-opacity="0.2" stroke-width="0.615384" stroke-linejoin="round"/>
<path d="M354.461 467.902L340.676 471.41L322.769 470.179L317.723 466.117L287.692 466.487L286.523 467.102L282.153 463.225L277.353 462.979L272.923 464.394L269.292 466.056L269.661 472.579L275.507 480.887L277.046 486.241L280.738 496.456L284.369 503.471L287.2 506.979L288 511.656L287.938 521.81L290.03 534.917L291.63 541.133L292.984 549.379L295.63 555.594L300.738 562.056L304.43 557.871L307.2 560.148L308.246 563.84L311.446 564.456L315.938 566.056L319.876 565.44L326.523 561.071L327.876 529.625L328.738 504.764L335.999 504.456L337.169 474.117L342.707 473.871L354.215 470.856L356.923 474.364L361.784 471.041H363.999L368.246 469.133V468.394L365.353 466.487L360.553 465.994L354.461 467.902Z" fill="#6E6893" fill-opacity="0.17" stroke="#F4F4F4" stroke-opacity="0.2" stroke-width="0.615384" stroke-linejoin="round"/>
<path d="M282.03 122.61L270.338 118.918L245.415 135.164L224.184 151.841L213.784 155.656L213.969 175.287L209.907 180.949L209.292 186.179L202.707 187.533L192.554 188.272L189.784 191.287L185.046 191.656L184.431 195.779L185.415 199.656L189.661 205.195L189.907 209.318L198.523 211.226L198.338 217.072L200.861 214.61L203.507 214.549L209.231 219.472L209.723 211.841L211.877 208.456L212.861 203.533L214.83 201.687L222.83 200.702L230.338 203.841L233.169 207.102L236.923 207.226L240.492 205.133L249.538 209.502L253.354 209.318L257.723 205.687L262.092 205.933L264.246 204.764L268.246 205.256L274.03 207.718L279.815 202.979L281.6 203.349L286.769 212.641L288.123 212.456L288.369 209.749L290.461 209.256L291.138 205.256L286.338 205.072L286.277 199.595L283.138 196.395L286.153 185.195L295.507 177.195L295.63 166.118L298.092 148.826L299.63 145.133L296.492 142.241L296.307 139.533L293.477 137.318L291.384 124.087L286.277 127.226L282.03 122.61Z" fill="#6E6893" fill-opacity="0.17" stroke="#F4F4F4" stroke-opacity="0.2" stroke-width="0.615384" stroke-linejoin="round"/>
<path d="M288.123 212.456L286.769 212.641L281.6 203.349L279.815 202.979L274.03 207.718L268.246 205.256L264.246 204.764L262.092 205.933L257.723 205.687L253.354 209.318L249.538 209.502L240.492 205.133L236.923 207.225L233.169 207.102L230.338 203.841L222.831 200.702L214.831 201.687L212.861 203.533L211.877 208.456L209.723 211.841L209.231 219.472L208.923 222.302L210.646 227.349L209.169 230.795L209.969 233.072L206.338 238.302L204.061 240.948L202.646 246.302L202.831 251.718L202.461 265.441H209.046L214.707 265.379L220 270.979L222.523 277.133L226.523 282.425L232.554 282.61L235.446 280.702L238.277 281.195L246.092 278.118L248 272.087L251.507 263.841L253.723 263.779L258.154 258.795L260.984 258.672L265.23 262.179L270.338 259.287L271.015 255.779L272.677 252.333L273.846 248.025L277.784 244.518L279.261 238.548L280.861 236.641L281.846 232.21L283.754 226.795L290.03 220.21L290.338 217.379L291.138 215.841L288.123 212.456Z" fill="#6E6893" fill-opacity="0.17" stroke="#F4F4F4" stroke-opacity="0.2" stroke-width="0.615384" stroke-linejoin="round"/>
<path d="M411.015 328.395L406.461 331.041L404.676 330.179L402.523 332.518L402.215 337.625L401.169 338.241L400.43 342.918L404.984 343.595L407.323 338.733L411.323 339.287L413.476 338.179L413.969 333.195L411.015 328.395Z" fill="#6E6893" fill-opacity="0.17" stroke="#F4F4F4" stroke-opacity="0.2" stroke-width="0.615384" stroke-linejoin="round"/>
<path d="M119.261 83.2256H118.154L118.215 87.841L113.723 88.0871L111.323 90.0563H108L105.415 88.9486L99.2614 89.8102L96.6768 96.4563L94.3998 97.1333L90.7075 107.841L80.3076 117.072L77.5999 128.826L74.5229 132.641L73.5383 135.718L56.923 136.395L56.7999 136.333L56.4307 139.964L58.0922 137.133L86.9537 137.195L85.7845 124.887L87.6922 120.518L94.5845 119.718L94.8306 97.9333L118.769 98.364L119.077 85.5025L119.261 83.841V83.2256Z" fill="#6E6893" fill-opacity="0.17" stroke="#F4F4F4" stroke-opacity="0.2" stroke-width="0.615384" stroke-linejoin="round"/>
<path d="M455.384 180.025L455.815 174.364L458.03 171.779L463.446 170.364L466.953 165.502L462.707 162.364L459.753 160.272L456.492 150.118L454.953 141.318L456.492 139.779L453.599 131.41H424.43H395.876H366.277L366.892 148.456H358.4L358.461 152.026L359.938 185.81L353.477 185.256L350.277 191.533L348.43 196.764L350.03 198.733L347.692 201.379L348.615 204.887L346.769 208.456L346.03 211.533L348.677 211.041L350.277 214.364L350.461 219.287L353.292 221.81L353.23 223.902L354.153 227.533L358.584 232.825L358.646 236.333L357.477 239.841L358.03 242.487L360.615 244.948L361.23 245.379L363.569 244.395L366.092 242.795L367.877 235.225L369.846 231.287L375.261 230.118L376.553 232.456L380.553 237.379L382.584 238.118L385.292 236.702L390.646 236.948L391.753 238.733H399.2L399.384 236.948L403.261 235.348L403.938 232.887L406.769 231.102L413.169 236.087L416.984 235.225L420.553 229.072L424.553 224.395L423.753 219.287L421.907 216.825L426.4 216.333L426.83 214.487L430.338 215.041L429.6 221.318L430.646 227.472L434.646 230.856L435.569 233.748V237.995L436.615 238.179L436.553 237.133L438.584 228.21L442.03 225.872L442.707 222.364L445.661 215.841L450.03 211.656L452.799 203.287L453.661 195.964L452.738 192.518L455.384 180.025Z" fill="#6E6893" fill-opacity="0.17" stroke="#F4F4F4" stroke-opacity="0.2" stroke-width="0.615384" stroke-linejoin="round"/>
<path d="M435.569 233.749L434.646 230.856L430.646 227.472L429.599 221.318L430.338 215.041L426.83 214.487L426.399 216.333L421.907 216.826L423.753 219.287L424.553 224.395L420.553 229.072L416.984 235.226L413.169 236.087L406.769 231.102L403.938 232.887L403.261 235.349L399.384 236.949L399.199 238.733H391.753L390.646 236.949L385.292 236.702L382.584 238.118L380.553 237.379L376.553 232.456L375.261 230.118L369.846 231.287L367.876 235.226L366.092 242.795L363.569 244.395L361.23 245.379L366.399 248.702L370.584 252.087L370.646 254.856L375.753 259.287L378.953 262.979L380.923 268.087L386.584 271.472L387.815 274.179L392.43 281.195L395.815 282.241L397.784 280.825L401.292 281.379L405.476 279.595L407.261 283.225L413.969 288.887L417.046 286.549L421.846 288.456L427.876 286.425L433.169 286.487L437.722 282.549L442.276 277.441L447.261 271.841L442.707 262.61L439.199 260.641L437.846 257.195L433.969 253.072L429.353 252.456L431.815 247.595L435.753 247.41L436.861 244.825L436.615 238.179L435.569 237.995V233.749Z" fill="#6E6893" fill-opacity="0.17" stroke="#F4F4F4" stroke-opacity="0.2" stroke-width="0.615384" stroke-linejoin="round"/>
<path d="M91.5692 194.302L86.7692 188.456L82.3384 182.179L77.4769 179.902L73.9692 177.441L69.7846 177.502L66.1538 179.349L62.4615 178.61L59.8769 181.379L58.0308 185.749L54.2769 191.718L50.9539 193.318L54.6462 196.333L57.6 202.979L65.7231 202.733L67.4461 200.702L69.7846 200.579L72.6769 202.672L75.0154 202.733L77.4769 201.318L78.9538 203.779L75.6923 205.687L72.4923 205.502L69.2923 203.718L66.5231 205.687L65.1692 205.749L63.3231 206.918L56.5538 206.795L57.6615 213.318L61.6615 211.902L64.1231 212.21L66.1538 211.225L79.9384 211.595L83.5077 211.656L88.8615 213.749L90.523 213.564L91.0769 212.579L95.1384 213.256L96.2461 212.825L96.6153 210.118L96 206.856L93.2307 204.456L91.8153 199.595L91.5692 194.302Z" fill="#6E6893" fill-opacity="0.17" stroke="#F4F4F4" stroke-opacity="0.2" stroke-width="0.615384" stroke-linejoin="round"/>
<path d="M105.538 247.164L103.508 247.656L103.569 244.518L102.4 242.303L102.646 239.841L101.046 236.272L99.0152 233.195H93.046L91.2614 234.795L89.2306 234.979L87.9383 236.826L87.0153 239.164L83.0153 242.918L83.8768 249.256L85.1691 252.333L89.046 256.887L94.3999 260.333L96.4306 260.949L98.2152 258.241L98.646 255.779L102.031 251.164L105.538 247.164Z" fill="#6E6893" fill-opacity="0.17" stroke="#F4F4F4" stroke-opacity="0.2" stroke-width="0.615384" stroke-linejoin="round"/>
<path d="M414.769 538.794L411.199 537.194L409.046 537.81L408.184 540.271L405.969 543.471L405.846 546.425L409.907 551.04L414.215 550.117L415.938 546.364L415.569 542.61L414.769 538.794Z" fill="#6E6893" fill-opacity="0.17" stroke="#F4F4F4" stroke-opacity="0.2" stroke-width="0.615384" stroke-linejoin="round"/>
<path d="M358.461 152.025L328.492 135.718L298.707 119.41L291.384 124.087L293.477 137.318L296.307 139.533L296.492 142.241L299.63 145.133L298.092 148.826L295.63 166.118L295.507 177.195L286.154 185.195L283.138 196.395L286.277 199.595L286.338 205.072L291.138 205.256L290.461 209.256L293.477 214.733L294.092 220.333L293.846 225.995L298.03 233.748L293.846 233.687L291.754 234.241L288.307 233.441L286.769 237.441L291.2 242.425L294.461 243.841L295.569 247.348L297.969 253.256L296.861 255.533L303.015 254.918L304.369 252.702L305.661 252.887L307.507 254.795L316.923 251.533L320.061 248.21L323.938 245.256L323.2 242.241L325.292 241.502L332.554 241.995L339.507 238.056L344.8 228.764L348.492 225.318L353.23 223.902L353.292 221.81L350.461 219.287L350.277 214.364L348.677 211.041L346.03 211.533L346.769 208.456L348.615 204.887L347.692 201.379L350.03 198.733L348.43 196.764L350.277 191.533L353.477 185.256L359.938 185.81L358.461 152.025Z" fill="#6E6893" fill-opacity="0.17" stroke="#F4F4F4" stroke-opacity="0.2" stroke-width="0.615384" stroke-linejoin="round"/>
<path d="M188.984 225.133L182.4 224.948L181.846 227.595L184.984 231.964V238.179L185.723 244.887L187.569 247.964L185.907 255.656L186.523 259.841L188.492 265.256L190.215 268.272L196.246 266.425L194.4 260.579L194.707 241.01L193.169 239.287L192.923 235.102L190.277 232.087L188 229.564L188.984 225.133Z" fill="#6E6893" fill-opacity="0.17" stroke="#F4F4F4" stroke-opacity="0.2" stroke-width="0.615384" stroke-linejoin="round"/>
<path d="M264.307 36.7027L261.538 35.3488L259.569 31.2873L255.876 31.1642L254.4 26.4873L258.892 22.1796L259.569 14.7335L257.046 12.5796L256.923 8.57962L260.307 4.27194L259.753 2.6104L253.907 5.8104L253.969 1.44117L248.984 0.39502L241.476 3.90271L240.123 8.33347L241.538 16.5796L240.061 23.7181L235.753 28.5181L236.553 34.918L242.523 40.0257L242.646 42.0565L247.138 45.5027L250.646 60.7026L254.092 58.7334L254.646 55.1642L253.723 51.6565L258.584 48.395L260.676 45.6873L264.123 43.2257L264.307 36.7027Z" fill="#6E6893" fill-opacity="0.17" stroke="#F4F4F4" stroke-opacity="0.2" stroke-width="0.615384" stroke-linejoin="round"/>
<path d="M413.661 327.349L411.015 328.395L413.969 333.195L413.476 338.179L411.322 339.287L411.692 342.61L413.292 344.579L413.353 347.349L411.507 349.133L408.492 353.564L405.722 356.641L404.984 356.764L404.553 360.395L405.969 361.626L405.661 365.256L407.076 368.641L405.292 371.902L411.261 377.687L411.753 382.918L415.384 391.656L415.753 391.902L418.707 393.318L423.445 394.795L427.63 397.318L434.953 398.918L436.369 401.256L436.861 399.595L440.676 404.149L441.045 413.072L443.445 416.333L443.384 416.456L446.276 416.149L455.138 418.549L457.169 417.441L462.338 417.256L465.107 414.672L469.599 414.795L477.845 411.533L483.999 406.549L481.292 404.702L478.399 396.333L475.938 390.979L476.553 386.918L476.184 384.333L478.338 379.164L478.153 376.949L473.415 373.872L473.045 369.072L476.676 358.549L466.03 350.056L465.599 345.133L438.461 327.779L434.769 331.533L432.245 335.41L435.199 338.302L430.892 340.395L429.969 339.41L425.599 339.964L422.215 341.872L420.184 338.549L421.599 332.579L421.907 327.472L413.661 327.349Z" fill="#6E6893" fill-opacity="0.17" stroke="#F4F4F4" stroke-opacity="0.2" stroke-width="0.615384" stroke-linejoin="round"/>
<path d="M437.723 282.548L433.169 286.487L427.876 286.425L421.846 288.456L417.046 286.548L413.969 288.887L413.599 298.794L416.615 299.964L414.215 302.979L411.323 305.256L408.492 309.687L406.892 313.625L406.523 320.456L404.738 323.718L404.676 330.179L406.461 331.041L411.015 328.394L413.661 327.348L421.907 327.471L421.476 324.21L424.984 319.225L429.723 317.994L432.923 315.964L436.799 317.625L437.169 318.241V317.81L439.323 314.364L442.953 308.702L445.661 302.487L442.276 292.764L441.353 288.456L437.723 282.548Z" fill="#6E6893" fill-opacity="0.17" stroke="#F4F4F4" stroke-opacity="0.2" stroke-width="0.615384" stroke-linejoin="round"/>
<path d="M321.415 615.163L324.676 614.979L329.292 611.717L335.446 610.363L343.015 606.979L345.907 607.409L350.338 606.363L357.907 608.025L361.538 606.425L365.784 607.656L366.892 605.317L370.584 604.825L378.338 601.563L384.061 597.686L389.538 592.579L398.399 583.84L403.015 577.748L405.415 573.379L408.799 569.071L410.338 567.84L415.63 563.533L417.784 559.717L419.199 552.64L421.476 546.425L415.938 546.363L414.215 550.117L409.907 551.04L405.846 546.425L405.969 543.471L408.184 540.271L409.046 537.81L411.199 537.194L414.769 538.794L414.338 535.717L416.184 526.24L414.646 520.148L411.753 508.148L407.876 507.348L405.353 508.333L401.846 506.917L398.83 506.794L388.184 513.071L381.292 519.41L378.584 525.133L376.184 528.333L372.184 529.01L370.707 533.071L369.846 535.717L365.046 537.686L359.138 537.317L355.753 534.917L352.738 533.871L349.046 535.84L347.076 539.902L343.507 542.486L339.692 546.302L334.461 547.163L332.923 544.148L333.846 538.979L329.846 530.856L327.876 529.625L326.523 561.071L319.876 565.44L315.938 566.056L311.446 564.456L308.246 563.84L307.2 560.148L304.43 557.871L300.738 562.056L305.476 573.071V573.133L308.8 580.333L313.046 588.209L312.923 594.733L310.523 596.271L312.492 601.994L312.184 606.979L312.984 609.317L313.415 608.148L316.246 611.963L318.584 612.086L321.415 615.163ZM384.799 578.794L382.153 579.594L377.23 573.071L381.476 567.717L385.661 564.394L389.169 562.671L392.123 565.256L394.461 567.84L391.938 571.963L390.461 574.733L386.338 576.086L384.799 578.794Z" fill="#6E6893" fill-opacity="0.17" stroke="#F4F4F4" stroke-opacity="0.2" stroke-width="0.615384" stroke-linejoin="round"/>
<path d="M413.107 391.779L410.584 391.102L411.015 389.256L409.723 388.887L399.63 390.302L397.6 391.348L395.384 396.764L396.984 400.518L395.446 410.61L394.277 419.164L396.246 420.641L401.415 423.964L403.507 422.425L403.876 431.595L398.153 431.533L395.2 426.856L392.553 423.225L386.892 422.056L385.292 417.564L380.677 420.272L374.707 419.041L372.307 415.225L367.569 414.425L364.061 414.61L363.692 411.964L361.107 411.779L361.846 414.425L360.923 418.548L362.153 422.548L360.923 425.748L361.538 428.641L345.969 428.579L344.984 455.656L349.784 462.61L354.461 467.902L360.553 465.995L365.353 466.487L368.246 468.395V469.133L369.6 469.748L377.846 470.671L380.184 471.656L382.707 471.471L387.015 465.933L393.723 458.918L396.43 458.302L397.477 455.348L401.784 451.964L407.507 450.795L407.015 444.702L429.846 437.687L426.03 435.472L428.553 427.595L431.015 424.641L429.784 417.564L431.446 410.672L432.8 408.333L431.076 401.133L427.63 397.318L423.446 394.795L418.707 393.318L415.753 391.902L415.384 391.656L415.938 393.072L414.707 393.564L413.107 391.779Z" fill="#6E6893" fill-opacity="0.17" stroke="#F4F4F4" stroke-opacity="0.2" stroke-width="0.615384" stroke-linejoin="round"/>
<path d="M411.753 508.148L419.999 498.487L422.215 492.394L423.384 491.594L424.43 486.61L423.384 484.087L423.999 477.687L425.722 471.779L426.215 461.01L422.461 458.302L418.953 457.687L417.415 455.594L414.03 453.748L407.876 453.933L407.507 450.794L401.784 451.964L397.476 455.348L396.43 458.302L393.723 458.917L387.015 465.933L382.707 471.471L380.184 471.656L377.846 470.671L369.599 469.748L372.184 476.579L373.599 478.056L375.753 482.979L383.753 492.333L386.892 493.256L386.769 496.271L388.676 501.687L394.338 502.979L398.83 506.794L401.846 506.917L405.353 508.333L407.876 507.348L411.753 508.148Z" fill="#6E6893" fill-opacity="0.17" stroke="#F4F4F4" stroke-opacity="0.2" stroke-width="0.615384" stroke-linejoin="round"/>
<path d="M512.369 229.81L508.861 226.241L507.322 222.733L504.799 221.133L502.215 225.687L500.676 228.702L503.63 233.441L506.461 237.502L509.415 240.579L534.215 250.671L540.553 250.61L519.938 276.148L510.153 276.518L503.569 282.548L498.769 282.671L496.738 285.379L490.276 295.041L490.522 326.056L494.953 333.071L496.615 331.041L498.399 326.548L506.645 316.271L513.661 309.748L524.799 301.318L532.245 294.425L540.922 282.794L547.138 273.256L553.292 260.825L557.599 249.933L560.922 240.395L562.707 231.225L564.184 228.148L563.938 223.656L564.43 218.733L564.122 216.333L561.292 216.395L557.907 219.287L553.968 220.148L550.584 221.441L548.184 221.564L543.938 221.871L541.353 223.471L537.661 224.025L531.199 226.671L523.076 227.656L516.122 229.81H512.369Z" fill="#6E6893" fill-opacity="0.17" stroke="#F4F4F4" stroke-opacity="0.2" stroke-width="0.615384" stroke-linejoin="round"/>
</g>
<defs>
<clipPath id="clip0_2728_1179">
<rect width="615.384" height="615.999" fill="white" transform="translate(0 0.39502)"/>
</clipPath>
</defs>
</svg>
